<svg width="480" height="718" viewBox="0 0 480 718" fill="none" xmlns="http://www.w3.org/2000/svg">
<g filter="url(#filter0_d_180_4)">
<rect width="472" height="710" rx="35" transform="matrix(-1 0 0 1 476 0)" fill="#0A0A0A"/>
</g>
<rect width="414" height="653" rx="22" transform="matrix(-1 0 0 1 447 28)" fill="#9D8D5B"/>
<rect x="-1.5" y="1.5" width="427" height="667" rx="20.5" transform="matrix(-1 0 0 1 452 20)" stroke="#9D8D5B" stroke-width="3"/>
<path d="M327.044 637V636.384L325.616 636.076C324.963 635.927 324.552 635.759 324.384 635.572C324.197 635.385 324.104 635.003 324.104 634.424V619.08H326.148C326.951 619.08 327.679 619.295 328.332 619.724C328.985 620.135 329.536 620.695 329.984 621.404C330.432 622.095 330.759 622.851 330.964 623.672H331.72C331.608 623.168 331.515 622.599 331.44 621.964C331.347 621.311 331.291 620.657 331.272 620.004C331.253 619.332 331.291 618.716 331.384 618.156H312.904C312.997 618.716 313.035 619.332 313.016 620.004C312.997 620.657 312.941 621.311 312.848 621.964C312.755 622.599 312.661 623.168 312.568 623.672H313.324C313.529 622.851 313.856 622.095 314.304 621.404C314.752 620.695 315.303 620.135 315.956 619.724C316.591 619.295 317.319 619.08 318.14 619.08H320.184V634.424C320.184 635.003 320.091 635.385 319.904 635.572C319.717 635.759 319.307 635.927 318.672 636.076L317.244 636.384V637H327.044ZM298.397 637V636.384L296.969 636.076C296.316 635.927 295.905 635.759 295.737 635.572C295.55 635.385 295.457 635.003 295.457 634.424V620.732C295.457 620.135 295.55 619.743 295.737 619.556C295.905 619.369 296.316 619.211 296.969 619.08L298.397 618.772V618.156H288.597V618.772L290.025 619.08C290.66 619.211 291.07 619.369 291.257 619.556C291.444 619.743 291.537 620.135 291.537 620.732V634.424C291.537 635.003 291.444 635.385 291.257 635.572C291.07 635.759 290.66 635.927 290.025 636.076L288.597 636.384V637H298.397ZM311.445 637V636.384L310.017 636.076C309.364 635.927 308.953 635.759 308.785 635.572C308.598 635.385 308.505 635.003 308.505 634.424V620.732C308.505 620.135 308.598 619.743 308.785 619.556C308.953 619.369 309.364 619.211 310.017 619.08L311.445 618.772V618.156H301.645V618.772L303.073 619.08C303.708 619.211 304.118 619.369 304.305 619.556C304.492 619.743 304.585 620.135 304.585 620.732V634.424C304.585 635.003 304.492 635.385 304.305 635.572C304.118 635.759 303.708 635.927 303.073 636.076L301.645 636.384V637H311.445ZM305.089 627.452V626.528H294.337V627.452H305.089ZM286.918 637V636.384L285.49 636.076C284.836 635.927 284.426 635.759 284.258 635.572C284.071 635.385 283.978 635.003 283.978 634.424V620.732C283.978 620.135 284.071 619.743 284.258 619.556C284.426 619.369 284.836 619.211 285.49 619.08L286.918 618.772V618.156H270.874C270.93 618.417 270.967 618.679 270.986 618.94C271.004 619.183 271.014 619.435 271.014 619.696C271.014 620.275 270.967 620.844 270.874 621.404C270.78 621.945 270.687 622.515 270.594 623.112H271.21C271.508 622.365 271.9 621.693 272.386 621.096C272.871 620.48 273.44 619.995 274.094 619.64C274.747 619.267 275.494 619.08 276.334 619.08H280.058V626.584H276.474C275.54 626.584 274.878 626.397 274.486 626.024C274.075 625.651 273.814 625.128 273.702 624.456L273.478 623.168H272.862V630.924H273.478L273.73 629.58C273.842 628.927 274.094 628.423 274.486 628.068C274.878 627.695 275.522 627.508 276.418 627.508H280.058V633.668C280.058 634.209 280.03 634.667 279.974 635.04C279.918 635.395 279.759 635.656 279.498 635.824C279.218 635.992 278.76 636.076 278.126 636.076H276.054C275.382 636.076 274.784 635.983 274.262 635.796C273.739 635.591 273.263 635.311 272.834 634.956C272.404 634.583 272.012 634.144 271.658 633.64L270.454 631.96H269.838C270.024 632.781 270.192 633.612 270.342 634.452C270.472 635.292 270.538 636.141 270.538 637H286.918ZM256.06 637V636.384L254.632 636.076C253.978 635.927 253.568 635.759 253.4 635.572C253.213 635.385 253.12 635.003 253.12 634.424V619.08H255.164C255.966 619.08 256.694 619.295 257.348 619.724C258.001 620.135 258.552 620.695 259 621.404C259.448 622.095 259.774 622.851 259.98 623.672H260.736C260.624 623.168 260.53 622.599 260.456 621.964C260.362 621.311 260.306 620.657 260.288 620.004C260.269 619.332 260.306 618.716 260.4 618.156H241.92C242.013 618.716 242.05 619.332 242.032 620.004C242.013 620.657 241.957 621.311 241.864 621.964C241.77 622.599 241.677 623.168 241.584 623.672H242.34C242.545 622.851 242.872 622.095 243.32 621.404C243.768 620.695 244.318 620.135 244.972 619.724C245.606 619.295 246.334 619.08 247.156 619.08H249.2V634.424C249.2 635.003 249.106 635.385 248.92 635.572C248.733 635.759 248.322 635.927 247.688 636.076L246.26 636.384V637H256.06ZM230.185 637.308C231.641 637.308 232.975 637.065 234.189 636.58C235.402 636.076 236.457 635.395 237.353 634.536C238.249 633.659 238.949 632.641 239.453 631.484C239.938 630.327 240.181 629.095 240.181 627.788C240.181 626.369 239.938 625.063 239.453 623.868C238.949 622.655 238.249 621.6 237.353 620.704C236.457 619.808 235.402 619.117 234.189 618.632C232.975 618.128 231.641 617.876 230.185 617.876C228.729 617.876 227.385 618.128 226.153 618.632C224.921 619.117 223.857 619.799 222.961 620.676C222.065 621.553 221.374 622.571 220.889 623.728C220.385 624.867 220.133 626.099 220.133 627.424C220.133 628.843 220.385 630.149 220.889 631.344C221.374 632.539 222.065 633.584 222.961 634.48C223.857 635.376 224.921 636.076 226.153 636.58C227.385 637.065 228.729 637.308 230.185 637.308ZM230.185 636.328C229.009 636.328 227.991 635.964 227.133 635.236C226.274 634.508 225.611 633.481 225.145 632.156C224.659 630.812 224.417 629.244 224.417 627.452C224.417 625.753 224.659 624.26 225.145 622.972C225.611 621.684 226.274 620.676 227.133 619.948C227.991 619.22 229.009 618.856 230.185 618.856C231.323 618.856 232.322 619.22 233.181 619.948C234.039 620.676 234.711 621.712 235.197 623.056C235.663 624.381 235.897 625.959 235.897 627.788C235.897 629.039 235.766 630.187 235.505 631.232C235.225 632.277 234.833 633.183 234.329 633.948C233.825 634.713 233.227 635.301 232.537 635.712C231.827 636.123 231.043 636.328 230.185 636.328ZM210.617 637.42L217.253 620.004C217.346 619.761 217.467 619.575 217.617 619.444C217.766 619.295 218.018 619.183 218.373 619.108L219.913 618.772V618.156H209.833V618.772L211.261 619.08C211.895 619.211 212.306 619.397 212.493 619.64C212.679 619.864 212.679 620.219 212.493 620.704L208.601 632.352L204.569 620.452C204.438 620.079 204.466 619.789 204.653 619.584C204.821 619.36 205.091 619.211 205.465 619.136L207.425 618.772V618.156H198.549V618.772L200.313 619.136C200.537 619.173 200.733 619.248 200.901 619.36C201.069 619.453 201.19 619.593 201.265 619.78C201.321 619.948 201.302 620.172 201.209 620.452L197.177 632.52L192.865 620.34C192.753 620.023 192.79 619.799 192.977 619.668C193.163 619.519 193.658 619.351 194.461 619.164L196.197 618.772V618.156H188.385V618.772L190.149 619.164C190.503 619.239 190.811 619.369 191.073 619.556C191.334 619.724 191.521 619.967 191.633 620.284L197.905 637.42H199.249L204.457 623.756L209.273 637.42H210.617ZM187.332 637V636.384L185.904 636.076C185.251 635.927 184.84 635.759 184.672 635.572C184.485 635.385 184.392 635.003 184.392 634.424V620.732C184.392 620.135 184.485 619.743 184.672 619.556C184.84 619.369 185.251 619.211 185.904 619.08L187.332 618.772V618.156H171.288C171.344 618.417 171.381 618.679 171.4 618.94C171.419 619.183 171.428 619.435 171.428 619.696C171.428 620.275 171.381 620.844 171.288 621.404C171.195 621.945 171.101 622.515 171.008 623.112H171.624C171.923 622.365 172.315 621.693 172.8 621.096C173.285 620.48 173.855 619.995 174.508 619.64C175.161 619.267 175.908 619.08 176.748 619.08H180.472V626.584H176.888C175.955 626.584 175.292 626.397 174.9 626.024C174.489 625.651 174.228 625.128 174.116 624.456L173.892 623.168H173.276V630.924H173.892L174.144 629.58C174.256 628.927 174.508 628.423 174.9 628.068C175.292 627.695 175.936 627.508 176.832 627.508H180.472V633.668C180.472 634.209 180.444 634.667 180.388 635.04C180.332 635.395 180.173 635.656 179.912 635.824C179.632 635.992 179.175 636.076 178.54 636.076H176.468C175.796 636.076 175.199 635.983 174.676 635.796C174.153 635.591 173.677 635.311 173.248 634.956C172.819 634.583 172.427 634.144 172.072 633.64L170.868 631.96H170.252C170.439 632.781 170.607 633.612 170.756 634.452C170.887 635.292 170.952 636.141 170.952 637H187.332ZM149.59 637.42C150.374 637.42 151.121 637.28 151.83 637C152.539 636.72 153.23 636.272 153.902 635.656C154.574 635.04 155.246 634.237 155.918 633.248C156.385 632.539 156.861 631.848 157.346 631.176C157.831 630.485 158.373 629.916 158.97 629.468C159.549 629.001 160.249 628.768 161.07 628.768H161.714V634.424C161.714 635.003 161.621 635.385 161.434 635.572C161.247 635.759 160.837 635.927 160.202 636.076L158.774 636.384V637H168.574V636.384L167.146 636.076C166.493 635.927 166.082 635.759 165.914 635.572C165.727 635.385 165.634 635.003 165.634 634.424V620.732C165.634 620.135 165.727 619.743 165.914 619.556C166.082 619.369 166.493 619.211 167.146 619.08L168.574 618.772V618.156H160.734C157.934 618.156 155.75 618.604 154.182 619.5C152.595 620.396 151.802 621.665 151.802 623.308C151.802 624.167 152.073 624.951 152.614 625.66C153.137 626.351 153.837 626.911 154.714 627.34C155.591 627.769 156.553 628.04 157.598 628.152V628.208C156.739 628.245 155.974 628.479 155.302 628.908C154.63 629.319 154.023 629.851 153.482 630.504C152.922 631.139 152.399 631.82 151.914 632.548C151.429 633.239 150.943 633.883 150.458 634.48C149.973 635.077 149.478 635.563 148.974 635.936C148.451 636.291 147.919 636.468 147.378 636.468V637.14C148.125 637.327 148.862 637.42 149.59 637.42ZM161.714 627.844H160.734C159.838 627.844 159.017 627.695 158.27 627.396C157.505 627.079 156.898 626.612 156.45 625.996C156.002 625.361 155.778 624.559 155.778 623.588C155.778 622.113 156.245 620.993 157.178 620.228C158.093 619.463 159.399 619.08 161.098 619.08H161.714V627.844Z" fill="white"/>
<path d="M295 152H182.5L157 584H323L295 152Z" fill="#D9D9D9"/>
<rect width="166" height="63" transform="matrix(-1 0 0 1 323 116)" fill="#D9D9D9"/>
<rect width="40" height="25" transform="matrix(-1 0 0 1 323 91)" fill="#D9D9D9"/>
<rect width="40" height="25" transform="matrix(-1 0 0 1 260 91)" fill="#D9D9D9"/>
<rect width="40" height="25" transform="matrix(-1 0 0 1 197 91)" fill="#D9D9D9"/>
<rect width="40" height="35" transform="matrix(-1 0 0 1 260 204)" fill="#CD8A3E"/>
<rect width="58" height="50" transform="matrix(-1 0 0 1 269 375)" fill="#CD8A3E"/>
<rect width="46" height="40" transform="matrix(-1 0 0 1 263 287)" fill="#CD8A3E"/>
<path d="M274.163 460L326.326 584H406L274.163 460Z" fill="#6B7699"/>
<path d="M74 478L118.71 584H187L74 478Z" fill="#6B7699"/>
<path d="M220 482L262.731 584H328L220 482Z" fill="#6B7699"/>
<path d="M131.163 460L183.326 584H263L131.163 460Z" fill="#6B7699"/>
<path d="M303 69L285.679 90H320.321L303 69Z" fill="#695518"/>
<path d="M177 69L159.679 90H194.321L177 69Z" fill="#695518"/>
<path d="M240 69L222.679 90H257.321L240 69Z" fill="#695518"/>
<path d="M385 168L380.839 193.956L359.544 178.544L374.956 199.839L349 204L374.956 208.161L359.544 229.456L380.839 214.044L385 240L389.161 214.044L410.456 229.456L395.044 208.161L421 204L395.044 199.839L410.456 178.544L389.161 193.956L385 168Z" fill="#695518"/>
<path d="M372 319L368.302 342.072L349.373 328.373L363.072 347.302L340 351L363.072 354.698L349.373 373.627L368.302 359.928L372 383L375.698 359.928L394.627 373.627L380.928 354.698L404 351L380.928 347.302L394.627 328.373L375.698 342.072L372 319Z" fill="#695518"/>
<path d="M88 275L83.8395 300.956L62.5442 285.544L77.9556 306.839L52 311L77.9556 315.161L62.5442 336.456L83.8395 321.044L88 347L92.1605 321.044L113.456 336.456L98.0444 315.161L124 311L98.0444 306.839L113.456 285.544L92.1605 300.956L88 275Z" fill="#695518"/>
<defs>
<filter id="filter0_d_180_4" x="0" y="0" width="480" height="718" filterUnits="userSpaceOnUse" color-interpolation-filters="sRGB">
<feFlood flood-opacity="0" result="BackgroundImageFix"/>
<feColorMatrix in="SourceAlpha" type="matrix" values="0 0 0 0 0 0 0 0 0 0 0 0 0 0 0 0 0 0 127 0" result="hardAlpha"/>
<feOffset dy="4"/>
<feGaussianBlur stdDeviation="2"/>
<feComposite in2="hardAlpha" operator="out"/>
<feColorMatrix type="matrix" values="0 0 0 0 0 0 0 0 0 0 0 0 0 0 0 0 0 0 0.25 0"/>
<feBlend mode="normal" in2="BackgroundImageFix" result="effect1_dropShadow_180_4"/>
<feBlend mode="normal" in="SourceGraphic" in2="effect1_dropShadow_180_4" result="shape"/>
</filter>
</defs>
</svg>
