<svg width="480" height="718" viewBox="0 0 480 718" fill="none" xmlns="http://www.w3.org/2000/svg">
<g filter="url(#filter0_d_180_3)">
<rect width="472" height="710" rx="35" transform="matrix(-1 0 0 1 476 0)" fill="#0A0A0A"/>
</g>
<rect width="414" height="653" rx="22" transform="matrix(-1 0 0 1 447 28)" fill="#9D8D5B"/>
<rect x="-1.5" y="1.5" width="427" height="667" rx="20.5" transform="matrix(-1 0 0 1 452 20)" stroke="#9D8D5B" stroke-width="3"/>
<path d="M333.044 637V636.384L331.616 636.076C330.963 635.927 330.552 635.759 330.384 635.572C330.197 635.385 330.104 635.003 330.104 634.424V619.08H332.148C332.951 619.08 333.679 619.295 334.332 619.724C334.985 620.135 335.536 620.695 335.984 621.404C336.432 622.095 336.759 622.851 336.964 623.672H337.72C337.608 623.168 337.515 622.599 337.44 621.964C337.347 621.311 337.291 620.657 337.272 620.004C337.253 619.332 337.291 618.716 337.384 618.156H318.904C318.997 618.716 319.035 619.332 319.016 620.004C318.997 620.657 318.941 621.311 318.848 621.964C318.755 622.599 318.661 623.168 318.568 623.672H319.324C319.529 622.851 319.856 622.095 320.304 621.404C320.752 620.695 321.303 620.135 321.956 619.724C322.591 619.295 323.319 619.08 324.14 619.08H326.184V634.424C326.184 635.003 326.091 635.385 325.904 635.572C325.717 635.759 325.307 635.927 324.672 636.076L323.244 636.384V637H333.044ZM304.397 637V636.384L302.969 636.076C302.316 635.927 301.905 635.759 301.737 635.572C301.55 635.385 301.457 635.003 301.457 634.424V620.732C301.457 620.135 301.55 619.743 301.737 619.556C301.905 619.369 302.316 619.211 302.969 619.08L304.397 618.772V618.156H294.597V618.772L296.025 619.08C296.66 619.211 297.07 619.369 297.257 619.556C297.444 619.743 297.537 620.135 297.537 620.732V634.424C297.537 635.003 297.444 635.385 297.257 635.572C297.07 635.759 296.66 635.927 296.025 636.076L294.597 636.384V637H304.397ZM317.445 637V636.384L316.017 636.076C315.364 635.927 314.953 635.759 314.785 635.572C314.598 635.385 314.505 635.003 314.505 634.424V620.732C314.505 620.135 314.598 619.743 314.785 619.556C314.953 619.369 315.364 619.211 316.017 619.08L317.445 618.772V618.156H307.645V618.772L309.073 619.08C309.708 619.211 310.118 619.369 310.305 619.556C310.492 619.743 310.585 620.135 310.585 620.732V634.424C310.585 635.003 310.492 635.385 310.305 635.572C310.118 635.759 309.708 635.927 309.073 636.076L307.645 636.384V637H317.445ZM311.089 627.452V626.528H300.337V627.452H311.089ZM292.918 637V636.384L291.49 636.076C290.836 635.927 290.426 635.759 290.258 635.572C290.071 635.385 289.978 635.003 289.978 634.424V620.732C289.978 620.135 290.071 619.743 290.258 619.556C290.426 619.369 290.836 619.211 291.49 619.08L292.918 618.772V618.156H276.874C276.93 618.417 276.967 618.679 276.986 618.94C277.004 619.183 277.014 619.435 277.014 619.696C277.014 620.275 276.967 620.844 276.874 621.404C276.78 621.945 276.687 622.515 276.594 623.112H277.21C277.508 622.365 277.9 621.693 278.386 621.096C278.871 620.48 279.44 619.995 280.094 619.64C280.747 619.267 281.494 619.08 282.334 619.08H286.058V626.584H282.474C281.54 626.584 280.878 626.397 280.486 626.024C280.075 625.651 279.814 625.128 279.702 624.456L279.478 623.168H278.862V630.924H279.478L279.73 629.58C279.842 628.927 280.094 628.423 280.486 628.068C280.878 627.695 281.522 627.508 282.418 627.508H286.058V633.668C286.058 634.209 286.03 634.667 285.974 635.04C285.918 635.395 285.759 635.656 285.498 635.824C285.218 635.992 284.76 636.076 284.126 636.076H282.054C281.382 636.076 280.784 635.983 280.262 635.796C279.739 635.591 279.263 635.311 278.834 634.956C278.404 634.583 278.012 634.144 277.658 633.64L276.454 631.96H275.838C276.024 632.781 276.192 633.612 276.342 634.452C276.472 635.292 276.538 636.141 276.538 637H292.918ZM253.128 637V636.384L251.7 636.076C251.046 635.927 250.636 635.759 250.468 635.572C250.281 635.385 250.188 635.003 250.188 634.424V620.732C250.188 620.135 250.281 619.743 250.468 619.556C250.636 619.369 251.046 619.211 251.7 619.08L253.128 618.772V618.156H243.328V618.772L244.756 619.08C245.39 619.211 245.801 619.369 245.988 619.556C246.174 619.743 246.268 620.135 246.268 620.732V634.424C246.268 635.003 246.174 635.385 245.988 635.572C245.801 635.759 245.39 635.927 244.756 636.076L243.328 636.384V637H253.128ZM266.176 637V636.384L264.748 636.076C264.094 635.927 263.684 635.759 263.516 635.572C263.329 635.385 263.236 635.003 263.236 634.424V620.732C263.236 620.135 263.329 619.743 263.516 619.556C263.684 619.369 264.094 619.211 264.748 619.08L266.176 618.772V618.156H256.376V618.772L257.804 619.08C258.438 619.211 258.849 619.369 259.036 619.556C259.222 619.743 259.316 620.135 259.316 620.732V634.424C259.316 635.003 259.222 635.385 259.036 635.572C258.849 635.759 258.438 635.927 257.804 636.076L256.376 636.384V637H266.176ZM259.82 627.452V626.528H249.068V627.452H259.82ZM241.648 637V636.384L240.22 636.076C239.567 635.927 239.156 635.759 238.988 635.572C238.802 635.385 238.708 635.003 238.708 634.424V620.732C238.708 620.135 238.802 619.743 238.988 619.556C239.156 619.369 239.567 619.211 240.22 619.08L241.648 618.772V618.156H225.604C225.66 618.417 225.698 618.679 225.716 618.94C225.735 619.183 225.744 619.435 225.744 619.696C225.744 620.275 225.698 620.844 225.604 621.404C225.511 621.945 225.418 622.515 225.324 623.112H225.94C226.239 622.365 226.631 621.693 227.116 621.096C227.602 620.48 228.171 619.995 228.824 619.64C229.478 619.267 230.224 619.08 231.064 619.08H234.788V626.584H231.204C230.271 626.584 229.608 626.397 229.216 626.024C228.806 625.651 228.544 625.128 228.432 624.456L228.208 623.168H227.592V630.924H228.208L228.46 629.58C228.572 628.927 228.824 628.423 229.216 628.068C229.608 627.695 230.252 627.508 231.148 627.508H234.788V633.668C234.788 634.209 234.76 634.667 234.704 635.04C234.648 635.395 234.49 635.656 234.228 635.824C233.948 635.992 233.491 636.076 232.856 636.076H230.784C230.112 636.076 229.515 635.983 228.992 635.796C228.47 635.591 227.994 635.311 227.564 634.956C227.135 634.583 226.743 634.144 226.388 633.64L225.184 631.96H224.568C224.755 632.781 224.923 633.612 225.072 634.452C225.203 635.292 225.268 636.141 225.268 637H241.648ZM203.906 637.42C204.69 637.42 205.437 637.28 206.146 637C206.856 636.72 207.546 636.272 208.218 635.656C208.89 635.04 209.562 634.237 210.234 633.248C210.701 632.539 211.177 631.848 211.662 631.176C212.148 630.485 212.689 629.916 213.286 629.468C213.865 629.001 214.565 628.768 215.386 628.768H216.03V634.424C216.03 635.003 215.937 635.385 215.75 635.572C215.564 635.759 215.153 635.927 214.518 636.076L213.09 636.384V637H222.89V636.384L221.462 636.076C220.809 635.927 220.398 635.759 220.23 635.572C220.044 635.385 219.95 635.003 219.95 634.424V620.732C219.95 620.135 220.044 619.743 220.23 619.556C220.398 619.369 220.809 619.211 221.462 619.08L222.89 618.772V618.156H215.05C212.25 618.156 210.066 618.604 208.498 619.5C206.912 620.396 206.118 621.665 206.118 623.308C206.118 624.167 206.389 624.951 206.93 625.66C207.453 626.351 208.153 626.911 209.03 627.34C209.908 627.769 210.869 628.04 211.914 628.152V628.208C211.056 628.245 210.29 628.479 209.618 628.908C208.946 629.319 208.34 629.851 207.798 630.504C207.238 631.139 206.716 631.82 206.23 632.548C205.745 633.239 205.26 633.883 204.774 634.48C204.289 635.077 203.794 635.563 203.29 635.936C202.768 636.291 202.236 636.468 201.694 636.468V637.14C202.441 637.327 203.178 637.42 203.906 637.42ZM216.03 627.844H215.05C214.154 627.844 213.333 627.695 212.586 627.396C211.821 627.079 211.214 626.612 210.766 625.996C210.318 625.361 210.094 624.559 210.094 623.588C210.094 622.113 210.561 620.993 211.494 620.228C212.409 619.463 213.716 619.08 215.414 619.08H216.03V627.844ZM188.871 637.168L195.759 621.992L196.571 634.424C196.589 634.891 196.468 635.245 196.207 635.488C195.945 635.712 195.563 635.871 195.059 635.964L193.015 636.384V637H200.715V636.384L199.091 636.02C198.755 635.945 198.484 635.852 198.279 635.74C198.055 635.609 197.887 635.441 197.775 635.236C197.663 635.031 197.597 634.76 197.579 634.424L196.739 620.732C196.701 620.135 196.785 619.743 196.991 619.556C197.177 619.369 197.597 619.211 198.251 619.08L199.679 618.772V618.156L193.099 618.184L187.191 631.148L181.955 618.156H175.179V618.772L176.607 619.08C177.241 619.211 177.661 619.369 177.867 619.556C178.053 619.743 178.137 620.135 178.119 620.732L177.559 634.424C177.54 634.816 177.493 635.115 177.419 635.32C177.344 635.525 177.204 635.684 176.999 635.796C176.793 635.889 176.476 635.983 176.047 636.076L174.619 636.384V637H184.419V636.384L182.991 636.076C182.337 635.927 181.917 635.759 181.731 635.572C181.525 635.385 181.441 635.003 181.479 634.424L182.095 621.348L188.451 637.168H188.871ZM172.933 637V636.384L171.505 636.076C170.852 635.927 170.441 635.759 170.273 635.572C170.087 635.385 169.993 635.003 169.993 634.424V620.732C169.993 620.135 170.087 619.743 170.273 619.556C170.441 619.369 170.852 619.211 171.505 619.08L172.933 618.772V618.156H163.133V618.772L164.561 619.08C165.196 619.211 165.607 619.369 165.793 619.556C165.98 619.743 166.073 620.135 166.073 620.732V634.424C166.073 635.003 165.98 635.385 165.793 635.572C165.607 635.759 165.196 635.927 164.561 636.076L163.133 636.384V637H172.933ZM157.333 637V636.384L155.905 636.076C155.252 635.927 154.841 635.759 154.673 635.572C154.486 635.385 154.393 635.003 154.393 634.424V619.08H156.437C157.24 619.08 157.968 619.295 158.621 619.724C159.274 620.135 159.825 620.695 160.273 621.404C160.721 622.095 161.048 622.851 161.253 623.672H162.009C161.897 623.168 161.804 622.599 161.729 621.964C161.636 621.311 161.58 620.657 161.561 620.004C161.542 619.332 161.58 618.716 161.673 618.156H143.193C143.286 618.716 143.324 619.332 143.305 620.004C143.286 620.657 143.23 621.311 143.137 621.964C143.044 622.599 142.95 623.168 142.857 623.672H143.613C143.818 622.851 144.145 622.095 144.593 621.404C145.041 620.695 145.592 620.135 146.245 619.724C146.88 619.295 147.608 619.08 148.429 619.08H150.473V634.424C150.473 635.003 150.38 635.385 150.193 635.572C150.006 635.759 149.596 635.927 148.961 636.076L147.533 636.384V637H157.333Z" fill="white"/>
<path d="M280.333 243.406H186.682C165.291 243.406 147.588 260.042 146.26 281.392L136.077 445.09C134.627 468.401 153.143 488.104 176.499 488.104H293.379C317.015 488.104 335.629 467.948 333.751 444.387L320.705 280.689C319.027 259.636 301.453 243.406 280.333 243.406Z" stroke="#D9D9D9" stroke-width="25"/>
<path d="M295.313 352.182C293.112 328.53 273.264 310.444 249.511 310.444H222.643C198.753 310.444 178.84 328.731 176.809 352.534L175.467 368.274C175.246 370.856 175.245 373.453 175.462 376.037L176.857 392.633C178.86 416.46 198.784 434.78 222.695 434.78H249.454C273.231 434.78 293.09 416.658 295.262 392.98L296.783 376.387C297.041 373.571 297.04 370.738 296.778 367.924L295.313 352.182Z" fill="#D9D9D9"/>
<path d="M305.394 483.205C304.245 475.346 297.505 469.521 289.563 469.521H182.911C175.105 469.521 168.439 475.153 167.135 482.849L162.026 513.016C160.373 522.781 167.898 531.688 177.802 531.688H293.975C303.733 531.688 311.219 523.028 309.807 513.373L305.394 483.205Z" fill="#D9D9D9"/>
<rect width="191.429" height="60.3392" rx="20" transform="matrix(-1 0 0 1 331.629 510.661)" fill="#D9D9D9"/>
<rect width="47.8571" height="58.5107" transform="matrix(-1 0 0 1 259.843 421.98)" fill="#D9D9D9"/>
<rect width="67" height="24.6842" transform="matrix(-1 0 0 1 269.414 421.98)" fill="#D9D9D9"/>
<path d="M288.367 359.479C286.158 335.835 266.314 317.758 242.567 317.758H229.167C205.284 317.758 185.373 336.037 183.335 359.833L182.648 367.859C182.426 370.452 182.424 373.059 182.643 375.652L183.383 384.42C185.393 408.241 205.314 426.552 229.22 426.552H242.51C266.281 426.552 286.137 408.44 288.316 384.769L289.123 376.003C289.383 373.177 289.381 370.333 289.117 367.507L288.367 359.479Z" fill="#6B7699"/>
<ellipse cx="26.3214" cy="32.9123" rx="26.3214" ry="32.9123" transform="matrix(-1 0 0 1 261.757 351.585)" fill="#CDBC3E"/>
<ellipse cx="19.1429" cy="18.2846" rx="19.1429" ry="18.2846" transform="matrix(-1 0 0 1 255.057 378.097)" fill="#CD8A3E"/>
<path d="M254.578 243.706H215.814L197.628 282.103H274.2L254.578 243.706Z" fill="#D9D9D9"/>
<rect width="43.0714" height="20.1131" transform="matrix(-1 0 0 1 256.971 277.532)" fill="#D9D9D9"/>
<path d="M259.364 295.817H211.507L207.2 315.473H264.629L259.364 295.817Z" fill="#D9D9D9"/>
<rect width="82.3143" height="31.0838" transform="matrix(-1 0 0 1 277.071 205.308)" fill="#D9D9D9"/>
<rect width="153.143" height="12.7992" transform="matrix(-1 0 0 1 312.486 192.509)" fill="#D9D9D9"/>
<path d="M232.496 238.939L233.454 238.806L234.415 238.922C269.024 243.077 301.614 245.894 325.422 242.097C337.286 240.205 346.067 236.794 351.79 231.875C357.192 227.232 360.5 220.714 360.5 210.793C360.5 190.144 346.876 166.511 323.239 146.821C299.95 127.422 267.994 112.808 233.466 109.527C200.038 112.215 169.11 126.753 146.541 146.267C123.647 166.062 110.371 190.023 110.371 210.793C110.371 220.868 113.554 227.516 118.668 232.214C124.045 237.153 132.316 240.629 143.627 242.577C166.376 246.497 197.945 243.709 232.496 238.939Z" stroke="#D9D9D9" stroke-width="15"/>
<rect width="26.8" height="19.1988" transform="matrix(-1 0 0 1 172.743 233.649)" fill="#D9D9D9"/>
<rect width="26.8" height="19.1988" transform="matrix(-1 0 0 1 316.314 232.735)" fill="#D9D9D9"/>
<line y1="-2.5" x2="86.2149" y2="-2.5" transform="matrix(-0.788727 -0.614743 -0.614743 0.788727 120 328)" stroke="#6B7699" stroke-width="5"/>
<line y1="-2.5" x2="71.5612" y2="-2.5" transform="matrix(-0.838444 0.544988 0.544988 0.838444 112 412)" stroke="#6B7699" stroke-width="5"/>
<line y1="-2.5" x2="68.7314" y2="-2.5" transform="matrix(-0.989359 0.145494 0.145494 0.989359 114 383)" stroke="#6B7699" stroke-width="5"/>
<line y1="-2.5" x2="51.0882" y2="-2.5" transform="matrix(-0.998274 -0.058722 -0.058722 0.998274 111 350)" stroke="#6B7699" stroke-width="5"/>
<line y1="-2.5" x2="86.9415" y2="-2.5" transform="matrix(0.792705 -0.609606 0.619872 0.784703 358 328)" stroke="#6B7699" stroke-width="5"/>
<line y1="-2.5" x2="72.2423" y2="-2.5" transform="matrix(0.841761 0.53985 -0.550135 0.835076 366.108 412)" stroke="#6B7699" stroke-width="5"/>
<line y1="-2.5" x2="69.6406" y2="-2.5" transform="matrix(0.989637 0.143594 -0.147418 0.989074 364.081 383)" stroke="#6B7699" stroke-width="5"/>
<line y1="-2.5" x2="51.7762" y2="-2.5" transform="matrix(0.99832 -0.0579417 0.0595128 0.998228 367.122 350)" stroke="#6B7699" stroke-width="5"/>
<defs>
<filter id="filter0_d_180_3" x="0" y="0" width="480" height="718" filterUnits="userSpaceOnUse" color-interpolation-filters="sRGB">
<feFlood flood-opacity="0" result="BackgroundImageFix"/>
<feColorMatrix in="SourceAlpha" type="matrix" values="0 0 0 0 0 0 0 0 0 0 0 0 0 0 0 0 0 0 127 0" result="hardAlpha"/>
<feOffset dy="4"/>
<feGaussianBlur stdDeviation="2"/>
<feComposite in2="hardAlpha" operator="out"/>
<feColorMatrix type="matrix" values="0 0 0 0 0 0 0 0 0 0 0 0 0 0 0 0 0 0 0.25 0"/>
<feBlend mode="normal" in2="BackgroundImageFix" result="effect1_dropShadow_180_3"/>
<feBlend mode="normal" in="SourceGraphic" in2="effect1_dropShadow_180_3" result="shape"/>
</filter>
</defs>
</svg>
