<svg width="480" height="718" viewBox="0 0 480 718" fill="none" xmlns="http://www.w3.org/2000/svg">
<g filter="url(#filter0_d_180_2)">
<rect width="472" height="710" rx="35" transform="matrix(-1 0 0 1 476 0)" fill="#0A0A0A"/>
</g>
<rect width="414" height="653" rx="22" transform="matrix(-1 0 0 1 447 28)" fill="#9D8D5B"/>
<rect x="-1.5" y="1.5" width="427" height="667" rx="20.5" transform="matrix(-1 0 0 1 452 20)" stroke="#9D8D5B" stroke-width="3"/>
<rect width="10" height="223" transform="matrix(-0.939693 -0.34202 -0.34202 0.939693 388.012 87.3467)" fill="#D9D9D9"/>
<rect width="10" height="223" transform="matrix(-0.939693 0.34202 0.34202 0.939693 97.7295 82)" fill="#D9D9D9"/>
<path d="M239.5 183L201.873 238.695L138.695 215.754L140.99 282.928L76.3938 301.504L117.735 354.5L76.3938 407.496L140.99 426.072L138.695 493.246L201.873 470.305L239.5 526L277.127 470.305L340.305 493.246L338.01 426.072L402.606 407.496L361.265 354.5L402.606 301.504L338.01 282.928L340.305 215.754L277.127 238.695L239.5 183Z" fill="#D9D9D9"/>
<circle cx="115.5" cy="115.5" r="112" transform="matrix(-1 0 0 1 355 239)" stroke="#6B7699" stroke-width="7"/>
<circle cx="74" cy="74" r="72" transform="matrix(-1 0 0 1 314 281)" stroke="#6B7699" stroke-width="4"/>
<path d="M300.746 351.896H302.746V355.896H300.746V351.896ZM175.94 353.896L195.94 342.349V365.443L175.94 353.896ZM300.746 355.896H193.94V351.896H300.746V355.896Z" fill="#9D8D5B"/>
<path d="M274.634 353.895C274.634 359.167 278.908 363.44 284.179 363.44C289.451 363.44 293.724 359.167 293.724 353.895C293.724 348.624 289.451 344.351 284.179 344.351C278.908 344.351 274.634 348.624 274.634 353.895Z" stroke="#9D8D5B" stroke-width="3"/>
<path d="M237.791 295.379L238.895 412.454" stroke="#9D8D5B" stroke-width="4" stroke-linecap="round"/>
<path d="M284.179 309.716L195.14 398.741" stroke="#9D8D5B" stroke-width="4" stroke-linecap="round"/>
<path d="M284.179 400.958L195.147 311.925" stroke="#9D8D5B" stroke-width="4" stroke-linecap="round"/>
<path d="M244.418 300.88H231.164" stroke="#9D8D5B" stroke-width="4" stroke-linecap="round"/>
<path d="M243.313 307.507H232.269" stroke="#9D8D5B" stroke-width="4" stroke-linecap="round"/>
<path d="M232.269 405.806H245.522" stroke="#9D8D5B" stroke-width="4" stroke-linecap="round"/>
<path d="M233.394 399.179H244.438" stroke="#9D8D5B" stroke-width="4" stroke-linecap="round"/>
<path d="M301 273L297.857 282.674H287.685L295.914 288.652L292.771 298.326L301 292.348L309.229 298.326L306.086 288.652L314.315 282.674H304.143L301 273Z" fill="#897947"/>
<path d="M176 273L172.857 282.674H162.685L170.914 288.652L167.771 298.326L176 292.348L184.229 298.326L181.086 288.652L189.315 282.674H179.143L176 273Z" fill="#897947"/>
<path d="M301 406L297.857 415.674H287.685L295.914 421.652L292.771 431.326L301 425.348L309.229 431.326L306.086 421.652L314.315 415.674H304.143L301 406Z" fill="#897947"/>
<path d="M176 406L172.857 415.674H162.685L170.914 421.652L167.771 431.326L176 425.348L184.229 431.326L181.086 421.652L189.315 415.674H179.143L176 406Z" fill="#897947"/>
<path d="M243.044 273V272.384L241.616 272.076C240.963 271.927 240.552 271.759 240.384 271.572C240.197 271.385 240.104 271.003 240.104 270.424V255.08H242.148C242.951 255.08 243.679 255.295 244.332 255.724C244.985 256.135 245.536 256.695 245.984 257.404C246.432 258.095 246.759 258.851 246.964 259.672H247.72C247.608 259.168 247.515 258.599 247.44 257.964C247.347 257.311 247.291 256.657 247.272 256.004C247.253 255.332 247.291 254.716 247.384 254.156H228.904C228.997 254.716 229.035 255.332 229.016 256.004C228.997 256.657 228.941 257.311 228.848 257.964C228.755 258.599 228.661 259.168 228.568 259.672H229.324C229.529 258.851 229.856 258.095 230.304 257.404C230.752 256.695 231.303 256.135 231.956 255.724C232.591 255.295 233.319 255.08 234.14 255.08H236.184V270.424C236.184 271.003 236.091 271.385 235.904 271.572C235.717 271.759 235.307 271.927 234.672 272.076L233.244 272.384V273H243.044Z" fill="#897947"/>
<path d="M329.884 364.308C331.34 364.308 332.675 364.065 333.888 363.58C335.101 363.076 336.156 362.395 337.052 361.536C337.948 360.659 338.648 359.641 339.152 358.484C339.637 357.327 339.88 356.095 339.88 354.788C339.88 353.369 339.637 352.063 339.152 350.868C338.648 349.655 337.948 348.6 337.052 347.704C336.156 346.808 335.101 346.117 333.888 345.632C332.675 345.128 331.34 344.876 329.884 344.876C328.428 344.876 327.084 345.128 325.852 345.632C324.62 346.117 323.556 346.799 322.66 347.676C321.764 348.553 321.073 349.571 320.588 350.728C320.084 351.867 319.832 353.099 319.832 354.424C319.832 355.843 320.084 357.149 320.588 358.344C321.073 359.539 321.764 360.584 322.66 361.48C323.556 362.376 324.62 363.076 325.852 363.58C327.084 364.065 328.428 364.308 329.884 364.308ZM329.884 363.328C328.708 363.328 327.691 362.964 326.832 362.236C325.973 361.508 325.311 360.481 324.844 359.156C324.359 357.812 324.116 356.244 324.116 354.452C324.116 352.753 324.359 351.26 324.844 349.972C325.311 348.684 325.973 347.676 326.832 346.948C327.691 346.22 328.708 345.856 329.884 345.856C331.023 345.856 332.021 346.22 332.88 346.948C333.739 347.676 334.411 348.712 334.896 350.056C335.363 351.381 335.596 352.959 335.596 354.788C335.596 356.039 335.465 357.187 335.204 358.232C334.924 359.277 334.532 360.183 334.028 360.948C333.524 361.713 332.927 362.301 332.236 362.712C331.527 363.123 330.743 363.328 329.884 363.328Z" fill="#897947"/>
<path d="M228.176 456.42C228.96 456.42 229.707 456.28 230.416 456C231.125 455.72 231.816 455.272 232.488 454.656C233.16 454.04 233.832 453.237 234.504 452.248C234.971 451.539 235.447 450.848 235.932 450.176C236.417 449.485 236.959 448.916 237.556 448.468C238.135 448.001 238.835 447.768 239.656 447.768H240.3V453.424C240.3 454.003 240.207 454.385 240.02 454.572C239.833 454.759 239.423 454.927 238.788 455.076L237.36 455.384V456H247.16V455.384L245.732 455.076C245.079 454.927 244.668 454.759 244.5 454.572C244.313 454.385 244.22 454.003 244.22 453.424V439.732C244.22 439.135 244.313 438.743 244.5 438.556C244.668 438.369 245.079 438.211 245.732 438.08L247.16 437.772V437.156H239.32C236.52 437.156 234.336 437.604 232.768 438.5C231.181 439.396 230.388 440.665 230.388 442.308C230.388 443.167 230.659 443.951 231.2 444.66C231.723 445.351 232.423 445.911 233.3 446.34C234.177 446.769 235.139 447.04 236.184 447.152V447.208C235.325 447.245 234.56 447.479 233.888 447.908C233.216 448.319 232.609 448.851 232.068 449.504C231.508 450.139 230.985 450.82 230.5 451.548C230.015 452.239 229.529 452.883 229.044 453.48C228.559 454.077 228.064 454.563 227.56 454.936C227.037 455.291 226.505 455.468 225.964 455.468V456.14C226.711 456.327 227.448 456.42 228.176 456.42ZM240.3 446.844H239.32C238.424 446.844 237.603 446.695 236.856 446.396C236.091 446.079 235.484 445.612 235.036 444.996C234.588 444.361 234.364 443.559 234.364 442.588C234.364 441.113 234.831 439.993 235.764 439.228C236.679 438.463 237.985 438.08 239.684 438.08H240.3V446.844Z" fill="#897947"/>
<path d="M158.86 363V362.384L157.236 362.02C156.825 361.927 156.517 361.796 156.312 361.628C156.088 361.441 155.911 361.199 155.78 360.9L150.068 347.376L150.936 345.22C150.339 345.201 149.835 345.089 149.424 344.884C149.013 344.66 148.705 344.417 148.5 344.156C148.295 343.876 148.192 343.643 148.192 343.456H147.8L140.464 361.264C140.371 361.488 140.221 361.656 140.016 361.768C139.811 361.88 139.484 361.983 139.036 362.076L137.608 362.384V363H147.408V362.384L145.98 362.076C145.569 361.983 145.271 361.871 145.084 361.74C144.879 361.591 144.776 361.395 144.776 361.152C144.776 361.059 144.795 360.965 144.832 360.872C144.851 360.779 144.879 360.676 144.916 360.564L149.9 348.076H149.284L154.716 360.928C154.735 360.984 154.753 361.04 154.772 361.096C154.772 361.152 154.772 361.199 154.772 361.236C154.772 361.404 154.707 361.553 154.576 361.684C154.445 361.815 154.231 361.908 153.932 361.964L151.524 362.384V363H158.86ZM152.952 356.672V355.748H144.972V356.672H152.952Z" fill="#897947"/>
<path d="M379.48 637.42L386.116 620.004C386.209 619.761 386.331 619.575 386.48 619.444C386.629 619.295 386.881 619.183 387.236 619.108L388.776 618.772V618.156H378.696V618.772L380.124 619.08C380.759 619.211 381.169 619.397 381.356 619.64C381.543 619.864 381.543 620.219 381.356 620.704L377.464 632.352L373.432 620.452C373.301 620.079 373.329 619.789 373.516 619.584C373.684 619.36 373.955 619.211 374.328 619.136L376.288 618.772V618.156H367.412V618.772L369.176 619.136C369.4 619.173 369.596 619.248 369.764 619.36C369.932 619.453 370.053 619.593 370.128 619.78C370.184 619.948 370.165 620.172 370.072 620.452L366.04 632.52L361.728 620.34C361.616 620.023 361.653 619.799 361.84 619.668C362.027 619.519 362.521 619.351 363.324 619.164L365.06 618.772V618.156H357.248V618.772L359.012 619.164C359.367 619.239 359.675 619.369 359.936 619.556C360.197 619.724 360.384 619.967 360.496 620.284L366.768 637.42H368.112L373.32 623.756L378.136 637.42H379.48ZM343.147 637V636.384L341.719 636.076C341.066 635.927 340.655 635.759 340.487 635.572C340.3 635.385 340.207 635.003 340.207 634.424V620.732C340.207 620.135 340.3 619.743 340.487 619.556C340.655 619.369 341.066 619.211 341.719 619.08L343.147 618.772V618.156H333.347V618.772L334.775 619.08C335.41 619.211 335.82 619.369 336.007 619.556C336.194 619.743 336.287 620.135 336.287 620.732V634.424C336.287 635.003 336.194 635.385 336.007 635.572C335.82 635.759 335.41 635.927 334.775 636.076L333.347 636.384V637H343.147ZM356.195 637V636.384L354.767 636.076C354.114 635.927 353.703 635.759 353.535 635.572C353.348 635.385 353.255 635.003 353.255 634.424V620.732C353.255 620.135 353.348 619.743 353.535 619.556C353.703 619.369 354.114 619.211 354.767 619.08L356.195 618.772V618.156H346.395V618.772L347.823 619.08C348.458 619.211 348.868 619.369 349.055 619.556C349.242 619.743 349.335 620.135 349.335 620.732V634.424C349.335 635.003 349.242 635.385 349.055 635.572C348.868 635.759 348.458 635.927 347.823 636.076L346.395 636.384V637H356.195ZM349.839 627.452V626.528H339.087V627.452H349.839ZM331.668 637V636.384L330.24 636.076C329.586 635.927 329.176 635.759 329.008 635.572C328.821 635.385 328.728 635.003 328.728 634.424V620.732C328.728 620.135 328.821 619.743 329.008 619.556C329.176 619.369 329.586 619.211 330.24 619.08L331.668 618.772V618.156H315.624C315.68 618.417 315.717 618.679 315.736 618.94C315.754 619.183 315.764 619.435 315.764 619.696C315.764 620.275 315.717 620.844 315.624 621.404C315.53 621.945 315.437 622.515 315.344 623.112H315.96C316.258 622.365 316.65 621.693 317.136 621.096C317.621 620.48 318.19 619.995 318.844 619.64C319.497 619.267 320.244 619.08 321.084 619.08H324.808V626.584H321.224C320.29 626.584 319.628 626.397 319.236 626.024C318.825 625.651 318.564 625.128 318.452 624.456L318.228 623.168H317.612V630.924H318.228L318.48 629.58C318.592 628.927 318.844 628.423 319.236 628.068C319.628 627.695 320.272 627.508 321.168 627.508H324.808V633.668C324.808 634.209 324.78 634.667 324.724 635.04C324.668 635.395 324.509 635.656 324.248 635.824C323.968 635.992 323.51 636.076 322.876 636.076H320.804C320.132 636.076 319.534 635.983 319.012 635.796C318.489 635.591 318.013 635.311 317.584 634.956C317.154 634.583 316.762 634.144 316.408 633.64L315.204 631.96H314.588C314.774 632.781 314.942 633.612 315.092 634.452C315.222 635.292 315.288 636.141 315.288 637H331.668ZM312.91 637V636.384L311.482 636.076C310.829 635.927 310.418 635.759 310.25 635.572C310.063 635.385 309.97 635.003 309.97 634.424V620.732C309.97 620.135 310.063 619.743 310.25 619.556C310.418 619.369 310.829 619.211 311.482 619.08L312.91 618.772V618.156H296.866C296.922 618.417 296.959 618.679 296.978 618.94C296.997 619.183 297.006 619.435 297.006 619.696C297.006 620.275 296.959 620.844 296.866 621.404C296.773 621.945 296.679 622.515 296.586 623.112H297.202C297.501 622.365 297.893 621.693 298.378 621.096C298.863 620.48 299.433 619.995 300.086 619.64C300.739 619.267 301.486 619.08 302.326 619.08H306.05V626.584H302.466C301.533 626.584 300.87 626.397 300.478 626.024C300.067 625.651 299.806 625.128 299.694 624.456L299.47 623.168H298.854V630.924H299.47L299.722 629.58C299.834 628.927 300.086 628.423 300.478 628.068C300.87 627.695 301.514 627.508 302.41 627.508H306.05V633.668C306.05 634.209 306.022 634.667 305.966 635.04C305.91 635.395 305.751 635.656 305.49 635.824C305.21 635.992 304.753 636.076 304.118 636.076H302.046C301.374 636.076 300.777 635.983 300.254 635.796C299.731 635.591 299.255 635.311 298.826 634.956C298.397 634.583 298.005 634.144 297.65 633.64L296.446 631.96H295.83C296.017 632.781 296.185 633.612 296.334 634.452C296.465 635.292 296.53 636.141 296.53 637H312.91ZM294.152 637V636.384L292.724 636.076C292.071 635.927 291.66 635.759 291.492 635.572C291.306 635.385 291.212 635.003 291.212 634.424V620.732C291.212 620.135 291.306 619.743 291.492 619.556C291.66 619.369 292.071 619.211 292.724 619.08L294.152 618.772V618.156H284.352V618.772L285.78 619.08C286.415 619.211 286.826 619.369 287.012 619.556C287.199 619.743 287.292 620.135 287.292 620.732V634.424C287.292 634.928 287.162 635.329 286.9 635.628C286.62 635.927 286.107 636.076 285.36 636.076H281.832C281.123 636.076 280.498 635.992 279.956 635.824C279.415 635.637 278.939 635.367 278.528 635.012C278.118 634.639 277.754 634.181 277.436 633.64L276.12 631.484H275.504C275.691 632.305 275.878 633.22 276.064 634.228C276.232 635.217 276.316 636.141 276.316 637H294.152ZM260.375 637.224C261.626 637.224 262.727 636.944 263.679 636.384C264.631 635.824 265.368 635.068 265.891 634.116C266.414 633.164 266.675 632.091 266.675 630.896C266.675 629.608 266.414 628.479 265.891 627.508C265.368 626.519 264.631 625.753 263.679 625.212C262.727 624.652 261.626 624.372 260.375 624.372C259.106 624.372 257.995 624.652 257.043 625.212C256.091 625.753 255.354 626.5 254.831 627.452C254.308 628.404 254.047 629.477 254.047 630.672C254.047 631.941 254.308 633.071 254.831 634.06C255.354 635.049 256.091 635.824 257.043 636.384C257.995 636.944 259.106 637.224 260.375 637.224ZM260.347 636.328C259.451 636.328 258.779 635.899 258.331 635.04C257.864 634.163 257.631 632.809 257.631 630.98C257.631 629.095 257.864 627.676 258.331 626.724C258.779 625.753 259.47 625.268 260.403 625.268C261.28 625.268 261.952 625.697 262.419 626.556C262.867 627.415 263.091 628.759 263.091 630.588C263.091 632.473 262.867 633.901 262.419 634.872C261.952 635.843 261.262 636.328 260.347 636.328ZM252.508 637V636.524L251.612 636.188C251.332 636.076 251.136 635.936 251.024 635.768C250.912 635.6 250.856 635.367 250.856 635.068V625.548H252.648V624.624H250.856V623.308C250.856 621.721 250.613 620.48 250.128 619.584C249.624 618.688 248.933 618.053 248.056 617.68C247.178 617.288 246.152 617.092 244.976 617.092C243.93 617.092 243.072 617.307 242.4 617.736C241.728 618.147 241.392 618.716 241.392 619.444C241.392 619.985 241.541 620.405 241.84 620.704C242.138 620.984 242.502 621.124 242.932 621.124C243.398 621.124 243.8 620.993 244.136 620.732C244.453 620.452 244.612 620.06 244.612 619.556C244.612 619.369 244.584 619.22 244.528 619.108C244.472 618.977 244.416 618.875 244.36 618.8C244.304 618.707 244.257 618.632 244.22 618.576C244.164 618.501 244.136 618.417 244.136 618.324C244.136 618.137 244.248 618.016 244.472 617.96C244.677 617.885 244.91 617.848 245.172 617.848C245.713 617.848 246.161 618.035 246.516 618.408C246.87 618.763 247.132 619.351 247.3 620.172C247.468 620.993 247.552 622.085 247.552 623.448V624.624H244.332L244.612 625.548H247.552V635.264C247.552 635.469 247.486 635.656 247.356 635.824C247.206 635.973 246.973 636.095 246.656 636.188L245.452 636.524V637H252.508ZM234.543 637V636.384L233.115 636.076C232.461 635.927 232.051 635.759 231.883 635.572C231.696 635.385 231.603 635.003 231.603 634.424V620.732C231.603 620.135 231.696 619.743 231.883 619.556C232.051 619.369 232.461 619.211 233.115 619.08L234.543 618.772V618.156H218.527C218.583 618.417 218.62 618.679 218.639 618.94C218.657 619.183 218.667 619.435 218.667 619.696C218.667 620.275 218.62 620.844 218.527 621.404C218.433 621.945 218.34 622.515 218.247 623.112H218.863C219.087 622.552 219.367 622.029 219.703 621.544C220.039 621.059 220.421 620.639 220.851 620.284C221.261 619.911 221.737 619.621 222.279 619.416C222.801 619.192 223.371 619.08 223.987 619.08H227.683V627.144H224.099C223.464 627.144 222.96 627.06 222.587 626.892C222.213 626.724 221.933 626.481 221.747 626.164C221.541 625.847 221.401 625.464 221.327 625.016L221.103 623.728H220.487V631.484H221.103L221.355 630.14C221.429 629.692 221.569 629.319 221.775 629.02C221.961 628.703 222.241 628.469 222.615 628.32C222.969 628.152 223.445 628.068 224.043 628.068H227.683V634.424C227.683 635.003 227.589 635.395 227.403 635.6C227.216 635.787 226.805 635.945 226.171 636.076L224.547 636.384V637H234.543ZM206.138 637.308C207.594 637.308 208.929 637.065 210.142 636.58C211.355 636.076 212.41 635.395 213.306 634.536C214.202 633.659 214.902 632.641 215.406 631.484C215.891 630.327 216.134 629.095 216.134 627.788C216.134 626.369 215.891 625.063 215.406 623.868C214.902 622.655 214.202 621.6 213.306 620.704C212.41 619.808 211.355 619.117 210.142 618.632C208.929 618.128 207.594 617.876 206.138 617.876C204.682 617.876 203.338 618.128 202.106 618.632C200.874 619.117 199.81 619.799 198.914 620.676C198.018 621.553 197.327 622.571 196.842 623.728C196.338 624.867 196.086 626.099 196.086 627.424C196.086 628.843 196.338 630.149 196.842 631.344C197.327 632.539 198.018 633.584 198.914 634.48C199.81 635.376 200.874 636.076 202.106 636.58C203.338 637.065 204.682 637.308 206.138 637.308ZM206.138 636.328C204.962 636.328 203.945 635.964 203.086 635.236C202.227 634.508 201.565 633.481 201.098 632.156C200.613 630.812 200.37 629.244 200.37 627.452C200.37 625.753 200.613 624.26 201.098 622.972C201.565 621.684 202.227 620.676 203.086 619.948C203.945 619.22 204.962 618.856 206.138 618.856C207.277 618.856 208.275 619.22 209.134 619.948C209.993 620.676 210.665 621.712 211.15 623.056C211.617 624.381 211.85 625.959 211.85 627.788C211.85 629.039 211.719 630.187 211.458 631.232C211.178 632.277 210.786 633.183 210.282 633.948C209.778 634.713 209.181 635.301 208.49 635.712C207.781 636.123 206.997 636.328 206.138 636.328ZM175.145 637.42C175.929 637.42 176.675 637.28 177.385 637C178.094 636.72 178.785 636.272 179.457 635.656C180.129 635.04 180.801 634.237 181.473 633.248C181.939 632.539 182.415 631.848 182.901 631.176C183.386 630.485 183.927 629.916 184.525 629.468C185.103 629.001 185.803 628.768 186.625 628.768H187.269V634.424C187.269 635.003 187.175 635.385 186.989 635.572C186.802 635.759 186.391 635.927 185.757 636.076L184.329 636.384V637H194.129V636.384L192.701 636.076C192.047 635.927 191.637 635.759 191.469 635.572C191.282 635.385 191.189 635.003 191.189 634.424V620.732C191.189 620.135 191.282 619.743 191.469 619.556C191.637 619.369 192.047 619.211 192.701 619.08L194.129 618.772V618.156H186.289C183.489 618.156 181.305 618.604 179.737 619.5C178.15 620.396 177.357 621.665 177.357 623.308C177.357 624.167 177.627 624.951 178.169 625.66C178.691 626.351 179.391 626.911 180.269 627.34C181.146 627.769 182.107 628.04 183.153 628.152V628.208C182.294 628.245 181.529 628.479 180.857 628.908C180.185 629.319 179.578 629.851 179.037 630.504C178.477 631.139 177.954 631.82 177.469 632.548C176.983 633.239 176.498 633.883 176.013 634.48C175.527 635.077 175.033 635.563 174.529 635.936C174.006 636.291 173.474 636.468 172.933 636.468V637.14C173.679 637.327 174.417 637.42 175.145 637.42ZM187.269 627.844H186.289C185.393 627.844 184.571 627.695 183.825 627.396C183.059 627.079 182.453 626.612 182.005 625.996C181.557 625.361 181.333 624.559 181.333 623.588C181.333 622.113 181.799 620.993 182.733 620.228C183.647 619.463 184.954 619.08 186.653 619.08H187.269V627.844ZM168.685 637V636.384L167.257 636.076C166.603 635.927 166.193 635.759 166.025 635.572C165.838 635.385 165.745 635.003 165.745 634.424V619.08H167.789C168.591 619.08 169.319 619.295 169.973 619.724C170.626 620.135 171.177 620.695 171.625 621.404C172.073 622.095 172.399 622.851 172.605 623.672H173.361C173.249 623.168 173.155 622.599 173.081 621.964C172.987 621.311 172.931 620.657 172.913 620.004C172.894 619.332 172.931 618.716 173.025 618.156H154.545C154.638 618.716 154.675 619.332 154.657 620.004C154.638 620.657 154.582 621.311 154.489 621.964C154.395 622.599 154.302 623.168 154.209 623.672H154.965C155.17 622.851 155.497 622.095 155.945 621.404C156.393 620.695 156.943 620.135 157.597 619.724C158.231 619.295 158.959 619.08 159.781 619.08H161.825V634.424C161.825 635.003 161.731 635.385 161.545 635.572C161.358 635.759 160.947 635.927 160.313 636.076L158.885 636.384V637H168.685ZM143.454 637.308C144.35 637.308 145.227 637.159 146.086 636.86C146.926 636.543 147.691 636.104 148.382 635.544C149.054 634.984 149.586 634.321 149.978 633.556C150.37 632.772 150.566 631.913 150.566 630.98V620.732C150.566 620.135 150.659 619.743 150.846 619.556C151.014 619.369 151.424 619.211 152.078 619.08L153.506 618.772V618.156H143.706V618.772L145.134 619.08C145.768 619.211 146.179 619.369 146.366 619.556C146.552 619.743 146.646 620.135 146.646 620.732V630.84C146.646 632.24 146.244 633.351 145.442 634.172C144.639 634.993 143.444 635.404 141.858 635.404C140.943 635.404 140.14 635.217 139.45 634.844C138.759 634.452 138.218 633.92 137.826 633.248C137.415 632.576 137.21 631.811 137.21 630.952V620.732C137.21 620.265 137.34 619.92 137.602 619.696C137.844 619.453 138.218 619.285 138.722 619.192L140.766 618.772V618.156H133.066V618.772L134.69 619.136C135.194 619.248 135.576 619.416 135.838 619.64C136.08 619.864 136.202 620.228 136.202 620.732V633.948C136.5 633.948 136.771 634.069 137.014 634.312C137.238 634.536 137.508 634.807 137.826 635.124C138.124 635.441 138.498 635.768 138.946 636.104C139.375 636.44 139.954 636.729 140.682 636.972C141.391 637.196 142.315 637.308 143.454 637.308ZM113.28 637.476L127.532 621.712V634.424C127.532 634.891 127.41 635.245 127.168 635.488C126.906 635.712 126.524 635.871 126.02 635.964L123.976 636.384V637H131.676V636.384L130.052 636.02C129.548 635.908 129.174 635.74 128.932 635.516C128.67 635.292 128.54 634.928 128.54 634.424V620.732C128.54 620.34 128.577 620.041 128.652 619.836C128.726 619.631 128.876 619.481 129.1 619.388C129.305 619.276 129.622 619.173 130.052 619.08L131.48 618.772V618.156H125.544L113.812 631.092V620.732C113.812 620.265 113.942 619.92 114.204 619.696C114.446 619.453 114.82 619.285 115.324 619.192L117.368 618.772V618.156H109.668V618.772L111.292 619.136C111.796 619.248 112.178 619.416 112.44 619.64C112.682 619.864 112.804 620.228 112.804 620.732V637.476H113.28ZM108.406 637V636.384L106.978 636.076C106.325 635.927 105.914 635.759 105.746 635.572C105.559 635.385 105.466 635.003 105.466 634.424V620.732C105.466 620.135 105.559 619.743 105.746 619.556C105.914 619.369 106.325 619.211 106.978 619.08L108.406 618.772V618.156H92.3621C92.4181 618.417 92.4554 618.679 92.4741 618.94C92.4928 619.183 92.5021 619.435 92.5021 619.696C92.5021 620.275 92.4554 620.844 92.3621 621.404C92.2688 621.945 92.1754 622.515 92.0821 623.112H92.6981C92.9968 622.365 93.3888 621.693 93.8741 621.096C94.3594 620.48 94.9288 619.995 95.5821 619.64C96.2354 619.267 96.9821 619.08 97.8221 619.08H101.546V626.584H97.9621C97.0288 626.584 96.3661 626.397 95.9741 626.024C95.5634 625.651 95.3021 625.128 95.1901 624.456L94.9661 623.168H94.3501V630.924H94.9661L95.2181 629.58C95.3301 628.927 95.5821 628.423 95.9741 628.068C96.3661 627.695 97.0101 627.508 97.9061 627.508H101.546V633.668C101.546 634.209 101.518 634.667 101.462 635.04C101.406 635.395 101.247 635.656 100.986 635.824C100.706 635.992 100.249 636.076 99.6141 636.076H97.5421C96.8701 636.076 96.2728 635.983 95.7501 635.796C95.2274 635.591 94.7514 635.311 94.3221 634.956C93.8928 634.583 93.5008 634.144 93.1461 633.64L91.9421 631.96H91.3261C91.5128 632.781 91.6808 633.612 91.8301 634.452C91.9608 635.292 92.0261 636.141 92.0261 637H108.406Z" fill="white"/>
<rect width="353" height="31" transform="matrix(-1 0 0 1 414 62)" fill="#D9D9D9"/>
<rect width="321" height="9" transform="matrix(-1 0 0 1 398 73)" fill="#897947"/>
<defs>
<filter id="filter0_d_180_2" x="0" y="0" width="480" height="718" filterUnits="userSpaceOnUse" color-interpolation-filters="sRGB">
<feFlood flood-opacity="0" result="BackgroundImageFix"/>
<feColorMatrix in="SourceAlpha" type="matrix" values="0 0 0 0 0 0 0 0 0 0 0 0 0 0 0 0 0 0 127 0" result="hardAlpha"/>
<feOffset dy="4"/>
<feGaussianBlur stdDeviation="2"/>
<feComposite in2="hardAlpha" operator="out"/>
<feColorMatrix type="matrix" values="0 0 0 0 0 0 0 0 0 0 0 0 0 0 0 0 0 0 0.25 0"/>
<feBlend mode="normal" in2="BackgroundImageFix" result="effect1_dropShadow_180_2"/>
<feBlend mode="normal" in="SourceGraphic" in2="effect1_dropShadow_180_2" result="shape"/>
</filter>
</defs>
</svg>
