<svg width="779" height="497" viewBox="0 0 779 497" fill="none" xmlns="http://www.w3.org/2000/svg">
<path fill-rule="evenodd" clip-rule="evenodd" d="M385.429 148.693C384.044 149.533 382.668 150.406 381.303 151.311C332.362 183.748 315.645 245.099 343.963 288.342C372.281 331.585 434.912 340.344 483.853 307.907C487.011 305.814 490.035 303.6 492.921 301.279C484.994 313.074 474.586 323.605 461.895 332.016C412.955 364.453 348.614 353.083 318.187 306.62C287.76 260.157 302.768 196.196 351.709 163.758C362.386 156.681 373.797 151.69 385.429 148.693Z" fill="#9D8D5B"/>
<path d="M676.999 124.704L688.174 184.983L732.645 142.784L706.254 198.119L767.036 190.119L713.16 219.374L767.036 248.628L706.254 240.628L732.645 295.963L688.174 253.764L676.999 314.043L665.825 253.764L621.354 295.963L647.745 240.628L586.963 248.628L640.839 219.374L586.963 190.119L647.745 198.119L621.354 142.784L665.825 184.983L676.999 124.704Z" fill="#9D8D5B"/>
<path d="M158.517 236.987L169.159 289.208L210.878 256.045L185.463 302.889L238.739 304.301L189.159 323.85L229.063 359.177L178.517 342.282L186.378 394.994L158.517 349.562L130.656 394.994L138.517 342.282L87.9704 359.177L127.875 323.85L78.2944 304.301L131.571 302.889L106.155 256.045L147.875 289.208L158.517 236.987Z" fill="#9D8D5B"/>
<path d="M58.343 347.068L62.6573 368.239L79.5707 354.794L69.2672 373.785L90.8657 374.357L70.7656 382.283L86.943 396.604L66.4513 389.755L69.638 411.125L58.343 392.706L47.048 411.125L50.2348 389.755L29.7431 396.604L45.9205 382.283L25.8204 374.357L47.4188 373.785L37.1154 354.794L54.0287 368.239L58.343 347.068Z" fill="#9D8D5B"/>
<path d="M570.25 330.306L562.131 365.388L597.081 356.717L568.311 378.374L600.658 394.197L564.699 392.294L579.307 425.208L552.984 400.635L543.018 435.238L538.648 399.495L508.771 419.596L528.399 389.406L492.591 385.6L527.033 375.09L502.049 349.158L535.189 363.245L532.718 327.32L549.05 359.414L570.25 330.306Z" fill="#9D8D5B"/>
<circle cx="523.987" cy="144.518" r="29.7219" fill="#9D8D5B"/>
<circle cx="563.616" cy="96.0826" r="16.5122" fill="#9D8D5B"/>
<path d="M790.424 89.1824C793.377 94.527 794.051 101.185 792.317 109.196C790.579 117.228 786.447 126.469 780 136.75C767.105 157.31 745.233 181.587 715.989 208.021C657.532 260.861 570.043 321.938 467.376 378.674C364.709 435.41 266.443 476.986 190.599 498.365C152.658 509.059 120.464 514.66 96.1949 514.637C84.0596 514.625 74.0371 513.207 66.3117 510.405C58.6066 507.61 53.3277 503.496 50.3741 498.152C47.4206 492.807 46.7467 486.149 48.4803 478.138C50.2186 470.106 54.3505 460.865 60.7981 450.585C73.6924 430.024 95.5646 405.747 124.808 379.313C183.266 326.474 270.755 265.397 373.422 208.66C476.089 151.924 574.355 110.348 650.199 88.9697C688.14 78.275 720.334 72.6746 744.603 72.6974C756.738 72.7089 766.761 74.1274 774.486 76.9295C782.191 79.7242 787.47 83.8377 790.424 89.1824Z" stroke="#9D8D5B" stroke-width="5"/>
</svg>
