<svg width="599" height="895" viewBox="0 0 599 895" fill="none" xmlns="http://www.w3.org/2000/svg">
<path d="M409.565 870.914C594.641 1000.95 830.764 976.485 937.229 817.451C1043.69 658.418 980.922 423.942 795.845 293.904C610.769 163.865 374.646 188.333 268.181 347.366C161.716 506.4 224.488 740.876 409.565 870.914Z" stroke="#E7E0CB" stroke-width="5"/>
<ellipse cx="25.5" cy="27" rx="25.5" ry="27" transform="matrix(0.932931 0.360055 0.360055 -0.932931 189.181 573.491)" fill="#E7E0CB"/>
<path d="M439.85 258.797L450.248 242.195L459.467 258.845L457.384 239.548L474.96 245.775L461.369 232.812L479.078 225.702L460.34 225.139L469.895 208.018L454.777 220.118L451.708 200.999L447.284 220.1L433.026 207.928L441.366 225.092L422.591 225.563L439.793 232.76L425.286 245.653L443.301 239.514L439.85 258.797Z" fill="#E7E0CB"/>
<path d="M326.891 310.731L340.756 288.596L353.049 310.795L350.27 285.067L373.705 293.368L355.584 276.085L379.196 266.604L354.212 265.854L366.952 243.027L346.795 259.16L342.702 233.668L336.804 259.136L317.793 242.906L328.913 265.792L303.88 266.42L326.816 276.015L307.473 293.206L331.493 285.021L326.891 310.731Z" fill="#E7E0CB"/>
</svg>
