<svg width="318" height="882" viewBox="0 0 318 882" fill="none" xmlns="http://www.w3.org/2000/svg">
<path d="M-81.6913 101.875C-301.176 47.1959 -512.652 155.039 -554.716 341.74C-596.78 528.441 -453.793 724.589 -234.309 779.268C-14.8243 833.947 196.652 726.104 238.716 539.403C280.78 352.702 137.793 156.554 -81.6913 101.875Z" stroke="#E7E0CB" stroke-width="5"/>
<ellipse cx="25.5" cy="27" rx="25.5" ry="27" transform="matrix(-1 0 0 1 234 300)" fill="#E7E0CB"/>
<path d="M151.5 668L147.777 687.232L133.181 675.019L142.072 692.271L123.433 692.791L140.779 699.99L126.818 713L144.503 706.778L141.752 726.191L151.5 709.459L161.248 726.191L158.497 706.778L176.182 713L162.221 699.99L179.567 692.791L160.928 692.271L169.819 675.019L155.223 687.232L151.5 668Z" fill="#E7E0CB"/>
<path d="M207 570L202.036 595.643L182.574 579.358L194.43 602.361L169.577 603.054L192.706 612.653L174.091 630L197.67 621.704L194.003 647.588L207 625.279L219.997 647.588L216.33 621.704L239.909 630L221.294 612.653L244.423 603.054L219.57 602.361L231.426 579.358L211.964 595.643L207 570Z" fill="#E7E0CB"/>
</svg>
