<svg width="521" height="719" viewBox="0 0 521 719" fill="none" xmlns="http://www.w3.org/2000/svg">
<rect x="0.749084" width="519.432" height="719" rx="35" fill="#0A0A0A"/>
<rect x="32.6633" y="29.3677" width="455.603" height="661.277" rx="22" fill="#9D8D5B"/>
<path d="M259.915 293.676L270.29 335.944L310.106 312.807L284.963 349.446L330.896 358.994L284.963 368.541L310.106 405.18L270.29 382.044L259.915 424.311L249.539 382.044L209.723 405.18L234.866 368.541L188.933 358.994L234.866 349.446L209.723 312.807L249.539 335.944L259.915 293.676Z" fill="#D9D9D9"/>
<path d="M141.612 177.218L148.756 212.682L177.189 187.855L160.316 220.411L199.177 215.704L164.731 232.915L199.177 250.127L160.316 245.42L177.189 277.975L148.756 253.149L141.612 288.613L134.468 253.149L106.035 277.975L122.908 245.42L84.0474 250.127L118.493 232.915L84.0474 215.704L122.908 220.411L106.035 187.855L134.468 212.682L141.612 177.218Z" fill="#D9D9D9"/>
<path d="M434.343 288.613L438.629 309.891L455.689 294.995L445.565 314.528L468.881 311.704L448.214 322.031L468.881 332.358L445.565 329.534L455.689 349.067L438.629 334.171L434.343 355.449L430.056 334.171L412.997 349.067L423.12 329.534L399.804 332.358L420.471 322.031L399.804 311.704L423.12 314.528L412.997 294.995L430.056 309.891L434.343 288.613Z" fill="#D9D9D9"/>
<path d="M368.863 128.61L382.451 178.423L432.963 157.206L399.394 198.105L448.794 221.461L393.347 222.648L404.436 272.99L368.863 233.571L333.291 272.99L344.379 222.648L288.932 221.461L338.332 198.105L304.764 157.206L355.276 178.423L368.863 128.61Z" fill="#D9D9D9"/>
<path d="M87.1376 328.107L93.9769 352.681L119.403 342.214L102.505 362.391L127.371 373.914L99.4617 374.499L105.043 399.334L87.1376 379.888L69.2319 399.334L74.8134 374.499L46.9038 373.914L71.7696 362.391L54.8726 342.214L80.2982 352.681L87.1376 328.107Z" fill="#D9D9D9"/>
<g style="mix-blend-mode:exclusion">
<path d="M398.026 450.135C398.026 426.097 383.533 403.044 357.736 386.046C331.938 369.049 296.949 359.5 260.465 359.5C223.981 359.5 188.992 369.049 163.194 386.046C137.397 403.043 122.904 426.097 122.904 450.134L260.465 450.135H398.026Z" fill="#D9D9D9"/>
</g>
<rect x="122.904" y="460.768" width="275.123" height="206.586" fill="#6B7699"/>
<line y1="-0.5" x2="218.642" y2="-0.5" transform="matrix(0.925349 -0.379116 0.435536 0.900171 108.455 129.486)" stroke="white"/>
<line y1="-0.5" x2="218.642" y2="-0.5" transform="matrix(0.925349 -0.379116 0.435536 0.900171 108.455 148.939)" stroke="white"/>
<line y1="-0.5" x2="218.642" y2="-0.5" transform="matrix(0.925349 -0.379116 0.435536 0.900171 166.841 141.529)" stroke="white"/>
<rect x="25.3594" y="21.7534" width="470.211" height="675.493" rx="20.5" stroke="#9D8D5B" stroke-width="3"/>
</svg>
