<svg width="246" height="220" viewBox="0 0 246 220" fill="none" xmlns="http://www.w3.org/2000/svg">
<path d="M89.4179 32.9227L122.296 77.9878L154.166 32.2183L145.249 87.1153L200.453 77.0773L154.964 109.648L201.164 141.222L145.751 132.387L155.883 187.077L123.005 142.012L91.1346 187.782L100.052 132.885L44.8476 142.923L90.3369 110.352L44.1365 78.778L99.5504 87.6126L89.4179 32.9227Z" fill="#9D8D5B"/>
<path d="M123 1.68613L134.742 99.0771L246 109.355L134.742 119.633L123 217.024L111.258 119.633L0 109.355L111.258 99.0771L123 1.68613Z" fill="#9D8D5B"/>
<path d="M194.299 132.505C191.305 141.151 181.387 147.473 165.738 149.567C150.322 151.629 130.506 149.349 110.05 142.024C89.5949 134.699 72.7466 123.85 62.003 112.419C51.0977 100.817 47.2646 89.5698 50.2588 80.9243C53.2531 72.2788 63.1712 65.9562 78.82 63.8626C94.2366 61.8002 114.053 64.0804 134.508 71.4054C154.963 78.7304 171.812 89.5797 182.555 101.01C193.461 112.613 197.294 123.86 194.299 132.505Z" stroke="#9D8D5B" stroke-width="8"/>
<path d="M122 93.237L124.696 103.808L134.72 99.3056L128.059 107.985L137.862 112.942L126.859 113.194L129.059 123.877L122 115.512L114.941 123.877L117.141 113.194L106.138 112.942L115.941 107.985L109.28 99.3056L119.304 103.808L122 93.237Z" fill="#D9D9D9"/>
</svg>
