<svg width="246" height="220" viewBox="0 0 246 220" fill="none" xmlns="http://www.w3.org/2000/svg">
<path d="M121.891 78.2796L122.307 78.8498L122.708 78.2731L153.318 34.3146L144.754 87.0335L144.64 87.7334L145.341 87.606L198.351 77.9671L154.67 109.243L154.093 109.657L154.682 110.059L199.049 140.38L145.828 131.895L145.13 131.784L145.258 132.476L154.99 185.006L123.411 141.72L122.995 141.15L122.593 141.727L91.9833 185.685L100.547 132.967L100.661 132.267L99.96 132.394L46.9504 142.033L90.6309 110.757L91.2084 110.343L90.6194 109.941L46.2521 79.6201L99.4734 88.105L100.172 88.2163L100.043 87.5243L90.3108 34.9938L121.891 78.2796Z" fill="white" stroke="white"/>
<path d="M134.245 99.1369L134.293 99.5378L134.696 99.575L240.565 109.355L134.696 119.135L134.293 119.172L134.245 119.573L123 212.847L111.755 119.573L111.707 119.172L111.304 119.135L5.43548 109.355L111.304 99.575L111.707 99.5378L111.755 99.1369L123 5.86346L134.245 99.1369Z" fill="white" stroke="white"/>
<path d="M194.299 132.505C191.305 141.151 181.387 147.473 165.738 149.567C150.322 151.629 130.506 149.349 110.05 142.024C89.5949 134.699 72.7466 123.85 62.003 112.419C51.0977 100.817 47.2646 89.5698 50.2588 80.9243C53.2531 72.2788 63.1712 65.9562 78.82 63.8626C94.2366 61.8002 114.053 64.0804 134.508 71.4054C154.963 78.7304 171.812 89.5797 182.555 101.01C193.461 112.613 197.294 123.86 194.299 132.505Z" stroke="white" stroke-width="8"/>
<path d="M124.212 103.932L124.359 104.508L124.901 104.264L133.116 100.574L127.662 107.681L127.295 108.159L127.833 108.431L135.856 112.487L126.847 112.694L126.248 112.707L126.369 113.294L128.173 122.051L122.382 115.189L122 114.736L121.618 115.189L115.827 122.051L117.631 113.294L117.752 112.707L117.153 112.694L108.145 112.487L116.167 108.431L116.705 108.159L116.338 107.681L110.884 100.574L119.099 104.264L119.641 104.508L119.788 103.932L122 95.26L124.212 103.932Z" fill="#9D8D5B" stroke="#9D8D5B"/>
</svg>
