<svg width="173" height="795" viewBox="0 0 173 795" fill="none" xmlns="http://www.w3.org/2000/svg">
<path d="M420.29 101.868C651.244 47.1525 873.604 155.098 917.815 341.712C962.026 528.325 811.73 724.558 580.777 779.274C349.823 833.99 127.463 726.044 83.2523 539.431C39.041 352.817 189.337 156.584 420.29 101.868Z" stroke="#9D8D5B" stroke-width="5"/>
<circle cx="118" cy="326.998" r="27" fill="#9D8D5B"/>
<path d="M125 594L130.226 619.643L150.712 603.358L138.232 626.361L164.392 627.054L140.047 636.653L159.641 654L134.821 645.704L138.681 671.588L125 649.279L111.319 671.588L115.179 645.704L90.359 654L109.953 636.653L85.6077 627.054L111.768 626.361L99.2885 603.358L119.774 619.643L125 594Z" fill="#9D8D5B"/>
</svg>
