<svg width="830" height="424" viewBox="0 0 830 424" fill="none" xmlns="http://www.w3.org/2000/svg">
<path d="M-35.4307 411.497C-156.038 602.853 -119.777 837.454 44.3883 935.822C208.554 1034.19 439.592 959.754 560.199 768.398C680.807 577.042 644.546 342.441 480.38 244.073C316.215 145.705 85.1764 220.141 -35.4307 411.497Z" stroke="#9D8D5B" stroke-width="5"/>
<ellipse cx="25.5" cy="27" rx="25.5" ry="27" transform="matrix(-0.312886 0.949791 0.949791 0.312886 250.584 176.496)" fill="#9D8D5B"/>
<path d="M575.232 367.146L592.334 376.7L576.167 386.742L595.334 383.695L589.996 401.561L602.261 387.338L610.25 404.669L609.874 385.926L627.451 394.612L614.609 380.118L633.551 376.095L614.253 372.633L625.695 357.784L608.97 366.973L607.56 348.245L601.234 365.786L587.63 351.943L594.664 369.628L575.232 367.146Z" fill="#9D8D5B"/>
<path d="M519.81 298.878L542.612 311.616L521.056 325.005L546.613 320.942L539.495 344.764L555.849 325.8L566.5 348.907L565.999 323.917L589.435 335.498L572.313 316.174L597.568 310.81L571.837 306.194L587.094 286.394L564.794 298.647L562.913 273.676L554.479 297.064L536.341 278.606L545.718 302.186L519.81 298.878Z" fill="#9D8D5B"/>
</svg>
