<svg width="193" height="347" viewBox="0 0 193 347" fill="none" xmlns="http://www.w3.org/2000/svg">
<line x1="43.5" y1="51" x2="43.5" y2="292" stroke="#9D8D5B" stroke-width="5"/>
<line x1="104.5" x2="104.5" y2="241" stroke="#9D8D5B" stroke-width="5"/>
<line x1="153.5" y1="28" x2="153.5" y2="269" stroke="#9D8D5B" stroke-width="5"/>
<path d="M24.6192 277.839L43.3737 290.895L61.2606 277.208L54.9646 298.964L73.7192 312.02L51.0735 312.41L44.7776 334.167L37.0778 312.651L14.4321 313.041L32.319 299.354L24.6192 277.839Z" fill="#9D8D5B"/>
<path d="M87.8396 229.712L104.29 241.051L120.158 228.909L114.458 248.058L130.908 259.397L110.935 259.893L105.234 279.043L98.5902 260.2L78.6164 260.696L94.4838 248.555L87.8396 229.712Z" fill="#9D8D5B"/>
<path d="M136.84 257.712L153.29 269.051L169.158 256.909L163.458 276.058L179.908 287.397L159.935 287.893L154.234 307.043L147.59 288.2L127.616 288.696L143.484 276.555L136.84 257.712Z" fill="#9D8D5B"/>
</svg>
