<svg width="339" height="497" viewBox="0 0 339 497" fill="none" xmlns="http://www.w3.org/2000/svg">
<rect x="2.58221" width="330" height="497" rx="35" fill="#0A0A0A"/>
<rect x="15.0822" y="11.5" width="306" height="472" rx="32.5" stroke="#9D8D5B" stroke-width="5"/>
<circle cx="169.582" cy="249" r="29" fill="#9D8D5B"/>
<path d="M292.639 332.217C280.789 351.182 256.43 360.181 226.135 358.979C195.888 357.778 160.061 346.395 125.88 325.038C91.6989 303.68 65.7607 276.471 51.4208 249.813C37.0577 223.111 34.4665 197.273 46.3166 178.307C58.1666 159.342 82.5255 150.343 112.821 151.545C143.067 152.746 178.894 164.129 213.076 185.486C247.257 206.844 273.195 234.053 287.535 260.711C301.898 287.413 304.489 313.251 292.639 332.217Z" stroke="#9D8D5B" stroke-width="3"/>
<path d="M259.565 86.3597C265.847 89.8783 269.962 97.4895 271.492 109.167C273.014 120.788 271.89 135.923 268.215 153.602C260.869 188.93 243.455 233.841 217.657 279.9C191.859 325.96 162.661 364.271 136.374 388.989C123.219 401.359 110.9 410.224 100.196 414.997C89.4393 419.793 80.7994 420.26 74.5174 416.741C68.2355 413.223 64.1201 405.611 62.5906 393.934C61.0684 382.313 62.1919 367.178 65.8676 349.499C73.213 314.171 90.6275 269.259 116.425 223.2C142.223 177.141 171.422 138.83 197.709 114.112C210.863 101.742 223.182 92.877 233.887 88.1041C244.643 83.3081 253.283 82.8412 259.565 86.3597Z" stroke="#9D8D5B" stroke-width="5"/>
<circle cx="167.082" cy="248.5" r="51.5" stroke="#9D8D5B" stroke-width="2"/>
<path d="M174.543 197.615L174.912 201.256L176.446 197.934L207.518 130.653L190.56 202.757L189.721 206.324L192.256 203.677L243.566 150.1L204.034 212.801L202.075 215.908L205.338 214.223L271.318 180.153L213.503 226.661L210.634 228.968L214.276 228.429L287.774 217.55L217.941 242.833L214.475 244.088L218.1 244.757L291.157 258.243L216.867 259.565L213.183 259.631L216.394 261.436L281.101 297.827L210.398 275.043L206.898 273.915L209.345 276.66L258.692 332.019L199.236 287.59L196.297 285.394L197.715 288.777L226.351 357.112L184.59 295.847L182.528 292.822L182.766 296.475L187.58 370.38L168.047 298.92L167.082 295.391L166.118 298.92L146.584 370.38L151.399 296.475L151.637 292.822L149.575 295.847L107.813 357.112L136.45 288.777L137.868 285.394L134.929 287.59L75.4724 332.019L124.82 276.66L127.267 273.915L123.767 275.043L53.0633 297.827L117.77 261.436L120.981 259.631L117.298 259.565L43.0076 258.243L116.065 244.757L119.689 244.088L116.224 242.833L46.3901 217.55L119.888 228.429L123.53 228.968L120.662 226.661L62.846 180.153L128.826 214.223L132.09 215.908L130.131 212.801L90.5988 150.1L141.908 203.677L144.443 206.324L143.604 202.757L126.646 130.653L157.718 197.934L159.253 201.256L159.621 197.615L167.082 123.927L174.543 197.615Z" stroke="#9D8D5B" stroke-width="2"/>
<path d="M178.754 211.394L178.597 215.063L180.593 211.98L210.07 166.433L190.283 216.949L188.944 220.369L191.832 218.101L234.5 184.593L199.383 225.947L197.006 228.746L200.474 227.539L251.711 209.702L205.069 237.413L201.912 239.288L205.584 239.272L259.837 239.038L206.724 250.103L203.129 250.852L206.607 252.029L257.996 269.423L204.169 262.643L200.525 262.184L203.433 264.427L246.39 297.564L197.68 273.673L194.383 272.056L196.405 275.122L226.274 320.412L187.961 282L185.368 279.4L186.285 282.955L199.83 335.49L176.066 286.719L174.457 283.418L174.17 287.079L169.923 341.165L163.282 287.32L162.833 283.676L161.372 287.045L139.794 336.822L150.996 283.738L151.755 280.145L149.279 282.858L112.707 322.931L140.539 276.361L142.423 273.209L139.201 274.971L91.5988 300.998L133.044 265.988L135.849 263.618L132.23 264.238L78.7556 273.399L129.323 253.743L132.745 252.413L129.121 251.824L75.5696 243.126L129.779 240.954L133.448 240.807L130.211 239.073L82.3861 213.458L134.364 229.006L137.882 230.058L135.383 227.367L98.4663 187.611L142.579 219.193L145.565 221.331L144.075 217.975L122.068 168.386L153.536 212.58L155.666 215.571L155.347 211.913L150.633 157.865L166.046 209.883L167.089 213.404L167.975 209.84L181.066 157.19L178.754 211.394Z" stroke="#9D8D5B" stroke-width="2"/>
<circle cx="62.0822" cy="381.5" r="17.5" fill="#9D8D5B"/>
<path d="M263.082 356.5C263.082 359.112 260.774 361.5 257.582 361.5C254.39 361.5 252.082 359.112 252.082 356.5C252.082 353.888 254.39 351.5 257.582 351.5C260.774 351.5 263.082 353.888 263.082 356.5Z" stroke="#9D8D5B" stroke-width="5"/>
<path d="M70.0822 161C70.0822 163.897 67.5409 166.5 64.0822 166.5C60.6236 166.5 58.0822 163.897 58.0822 161C58.0822 158.103 60.6236 155.5 64.0822 155.5C67.5409 155.5 70.0822 158.103 70.0822 161Z" stroke="#9D8D5B" stroke-width="5"/>
<circle cx="271.582" cy="124" r="18" fill="#9D8D5B"/>
<path fill-rule="evenodd" clip-rule="evenodd" d="M105.703 74.6972C105.427 74.2886 105.141 73.8838 104.845 73.483C94.2428 59.1157 74.8078 55.4681 61.4362 65.3359C48.0646 75.2038 45.8199 94.8503 56.4226 109.218C57.1068 110.145 57.8278 111.027 58.5815 111.864C54.8065 109.701 51.409 106.737 48.6597 103.011C38.057 88.6439 41.1089 68.4016 55.4763 57.7989C69.8436 47.1963 90.0858 50.2481 100.689 64.6155C103.002 67.7501 104.665 71.1644 105.703 74.6972Z" fill="#9D8D5B"/>
<path fill-rule="evenodd" clip-rule="evenodd" d="M56.3283 95.0548C56.5207 95.3285 56.7201 95.5992 56.9264 95.8668C64.3257 105.461 77.9146 107.385 87.278 100.164C96.6414 92.9424 98.2337 79.3107 90.8343 69.7164C90.3568 69.0972 89.8535 68.51 89.3272 67.9551C91.9651 69.3329 94.338 71.2757 96.2567 73.7636C103.656 83.3579 101.499 97.4255 91.4379 105.185C81.3772 112.943 67.223 111.456 59.8237 101.861C58.2094 99.7681 57.05 97.462 56.3283 95.0548Z" fill="#9D8D5B"/>
<path fill-rule="evenodd" clip-rule="evenodd" d="M279.249 390.333C279.003 390.106 278.751 389.883 278.493 389.665C269.246 381.836 255.556 382.805 247.916 391.83C240.275 400.855 241.578 414.517 250.825 422.346C251.421 422.851 252.037 423.319 252.667 423.752C249.799 422.958 247.072 421.556 244.674 419.526C235.427 411.697 234.586 397.49 242.795 387.793C251.005 378.097 265.156 376.582 274.403 384.411C276.421 386.119 278.038 388.131 279.249 390.333Z" fill="#9D8D5B"/>
<path fill-rule="evenodd" clip-rule="evenodd" d="M236.407 421.309C236.786 421.623 237.174 421.932 237.571 422.233C251.781 433.046 271.458 431.089 281.521 417.864C291.584 404.638 288.222 385.152 274.012 374.34C273.095 373.642 272.155 372.998 271.197 372.406C275.427 373.422 279.52 375.313 283.205 378.117C297.415 388.929 300.17 409.214 289.358 423.424C278.546 437.635 258.261 440.389 244.05 429.577C240.95 427.218 238.395 424.408 236.407 421.309Z" fill="#9D8D5B"/>
<path fill-rule="evenodd" clip-rule="evenodd" d="M151.104 19.3945H55.4987C36.1688 19.3945 20.4987 35.0645 20.4987 54.3945V442.794C20.4987 462.124 36.1688 477.794 55.4987 477.794H151.104V473.794H55.4987C38.3779 473.794 24.4987 459.914 24.4987 442.794V54.3945C24.4987 37.2737 38.3779 23.3945 55.4987 23.3945H151.104V19.3945ZM155.586 473.794V477.794H160.707V473.794H155.586ZM155.586 23.3945V19.3945H160.067V23.3945H155.586ZM173.512 19.3945H178.634V23.3945H173.512V19.3945ZM278.72 473.794H183.115V477.794H278.72C298.05 477.794 313.72 462.124 313.72 442.794V54.3945C313.72 35.0646 298.05 19.3945 278.72 19.3945H183.115V23.3945H278.72C295.841 23.3945 309.72 37.2737 309.72 54.3945V442.794C309.72 459.914 295.841 473.794 278.72 473.794ZM174.152 473.794H178.634V477.794H174.152V473.794Z" fill="#9D8D5B"/>
<rect x="163.582" y="20" width="6" height="2" fill="#9D8D5B"/>
<rect x="164.582" y="475" width="6" height="3" fill="#9D8D5B"/>
<path d="M167.082 25L168.909 33.4124L175.921 28.8076L171.493 36.0998L179.582 38L171.493 39.9002L175.921 47.1924L168.909 42.5876L167.082 51L165.255 42.5876L158.243 47.1924L162.671 39.9002L154.582 38L162.671 36.0998L158.243 28.8076L165.255 33.4124L167.082 25Z" fill="#9D8D5B"/>
<path d="M193.582 25L194.752 30.1769L199.239 27.3431L196.405 31.8306L201.582 33L196.405 34.1694L199.239 38.6569L194.752 35.8231L193.582 41L192.413 35.8231L187.925 38.6569L190.759 34.1694L185.582 33L190.759 31.8306L187.925 27.3431L192.413 30.1769L193.582 25Z" fill="#9D8D5B"/>
<path d="M140.582 25L141.752 30.1769L146.239 27.3431L143.405 31.8306L148.582 33L143.405 34.1694L146.239 38.6569L141.752 35.8231L140.582 41L139.413 35.8231L134.925 38.6569L137.759 34.1694L132.582 33L137.759 31.8306L134.925 27.3431L139.413 30.1769L140.582 25Z" fill="#9D8D5B"/>
<circle cx="150.082" cy="40.5" r="1.5" fill="#9D8D5B"/>
<circle cx="184.082" cy="40.5" r="1.5" fill="#9D8D5B"/>
<path d="M43.0822 32L40.0511 26.75H46.1133L43.0822 32Z" fill="#9D8D5B"/>
<path d="M51.5822 32L48.1181 26.75H55.0463L51.5822 32Z" fill="#9D8D5B"/>
<path d="M60.5822 32L57.1181 26.75H64.0463L60.5822 32Z" fill="#9D8D5B"/>
<path d="M70.0822 32L67.0511 26.75H73.1133L70.0822 32Z" fill="#9D8D5B"/>
<path d="M94.5822 32L91.1181 26.75H98.0463L94.5822 32Z" fill="#9D8D5B"/>
<path d="M104.082 32L101.051 26.75H107.113L104.082 32Z" fill="#9D8D5B"/>
<path d="M112.582 32L109.118 26.75H116.046L112.582 32Z" fill="#9D8D5B"/>
<path d="M121.582 32L118.118 26.75H125.046L121.582 32Z" fill="#9D8D5B"/>
<path d="M215.582 32L212.118 26.75H219.046L215.582 32Z" fill="#9D8D5B"/>
<path d="M224.582 32L221.118 26.75H228.046L224.582 32Z" fill="#9D8D5B"/>
<path d="M234.082 32L231.051 26.75H237.113L234.082 32Z" fill="#9D8D5B"/>
<path d="M242.582 32L239.118 26.75H246.046L242.582 32Z" fill="#9D8D5B"/>
<path d="M267.582 32L264.118 26.75H271.046L267.582 32Z" fill="#9D8D5B"/>
<path d="M276.582 32L273.118 26.75H280.046L276.582 32Z" fill="#9D8D5B"/>
<path d="M285.582 32L282.118 26.75H289.046L285.582 32Z" fill="#9D8D5B"/>
<path d="M294.582 32L291.118 26.75H298.046L294.582 32Z" fill="#9D8D5B"/>
<path d="M168.39 470.751L166.518 462.465L159.336 467.001L163.871 459.819L155.585 457.947L163.871 456.075L159.336 448.893L166.518 453.428L168.39 445.142L170.261 453.428L177.444 448.893L172.908 456.075L181.194 457.947L172.908 459.818L177.444 467.001L170.262 462.465L168.39 470.751Z" fill="#9D8D5B"/>
<path d="M141.821 470.752L140.651 465.573L136.162 468.408L138.997 463.919L133.818 462.749L138.997 461.579L136.162 457.09L140.651 459.925L141.821 454.746L142.99 459.925L147.479 457.09L144.645 461.579L149.824 462.749L144.645 463.919L147.48 468.408L142.991 465.573L141.821 470.752Z" fill="#9D8D5B"/>
<path d="M194.959 470.751L193.789 465.572L189.3 468.407L192.135 463.918L186.956 462.749L192.135 461.579L189.3 457.09L193.789 459.924L194.959 454.746L196.129 459.924L200.618 457.089L197.783 461.579L202.962 462.748L197.783 463.918L200.618 468.407L196.129 465.572L194.959 470.751Z" fill="#9D8D5B"/>
<circle cx="185.356" cy="455.706" r="1.60056" transform="rotate(179.999 185.356 455.706)" fill="#9D8D5B"/>
<circle cx="151.424" cy="455.706" r="1.60056" transform="rotate(179.999 151.424 455.706)" fill="#9D8D5B"/>
<path d="M292.593 463.066L295.92 468.828L289.267 468.828L292.593 463.066Z" fill="#9D8D5B"/>
<path d="M283.63 463.066L286.957 468.828L280.303 468.828L283.63 463.066Z" fill="#9D8D5B"/>
<path d="M274.667 463.066L277.994 468.828L271.34 468.828L274.667 463.066Z" fill="#9D8D5B"/>
<path d="M265.704 463.066L269.03 468.828L262.377 468.828L265.704 463.066Z" fill="#9D8D5B"/>
<path d="M240.735 463.067L244.062 468.829L237.408 468.829L240.735 463.067Z" fill="#9D8D5B"/>
<path d="M231.772 463.067L235.099 468.829L228.445 468.829L231.772 463.067Z" fill="#9D8D5B"/>
<path d="M222.809 463.067L226.136 468.829L219.482 468.829L222.809 463.067Z" fill="#9D8D5B"/>
<path d="M213.846 463.067L217.172 468.829L210.519 468.829L213.846 463.067Z" fill="#9D8D5B"/>
<path d="M119.733 463.07L123.06 468.832L116.407 468.832L119.733 463.07Z" fill="#9D8D5B"/>
<path d="M110.77 463.07L114.097 468.832L107.443 468.832L110.77 463.07Z" fill="#9D8D5B"/>
<path d="M101.807 463.07L105.134 468.832L98.4803 468.832L101.807 463.07Z" fill="#9D8D5B"/>
<path d="M92.8437 463.07L96.1705 468.832L89.5171 468.832L92.8437 463.07Z" fill="#9D8D5B"/>
<path d="M67.8751 463.071L71.2019 468.833L64.5485 468.833L67.8751 463.071Z" fill="#9D8D5B"/>
<path d="M58.912 463.071L62.2388 468.833L55.5854 468.833L58.912 463.071Z" fill="#9D8D5B"/>
<path d="M49.9489 463.071L53.2757 468.833L46.6224 468.833L49.9489 463.071Z" fill="#9D8D5B"/>
<path d="M40.9858 463.071L44.3126 468.833L37.6592 468.833L40.9858 463.071Z" fill="#9D8D5B"/>
<path d="M169.582 238L171.24 244.887L177.401 241.953L173.306 247.608L179.331 250.836L172.569 251.001L173.921 257.96L169.582 252.511L165.243 257.96L166.596 251.001L159.833 250.836L165.858 247.608L161.764 241.953L167.925 244.887L169.582 238Z" fill="#0A0A0A"/>
<path d="M171.748 242.941L171.893 243.533L172.446 243.275L180.522 239.498L175.138 246.801L174.793 247.269L175.308 247.54L183.245 251.718L174.348 251.93L173.755 251.944L173.87 252.527L175.642 261.484L169.971 254.488L169.582 254.008L169.194 254.488L163.522 261.484L165.295 252.527L165.41 251.944L164.816 251.93L155.92 251.718L163.857 247.54L164.372 247.269L164.026 246.801L158.642 239.498L166.719 243.275L167.271 243.533L167.416 242.941L169.582 234.101L171.748 242.941Z" stroke="black"/>
</svg>
