<svg width="331" height="497" viewBox="0 0 331 497" fill="none" xmlns="http://www.w3.org/2000/svg">
<rect x="0.303711" width="330" height="497" rx="35" fill="#0A0A0A"/>
<rect x="11.8037" y="11.5" width="306" height="472" rx="32.5" stroke="#9D8D5B" stroke-width="5"/>
<path d="M277.045 316.543C266.707 333.088 245.129 340.802 218.07 339.442C191.069 338.085 158.975 327.683 128.247 308.482C97.518 289.282 74.0983 264.998 61.0405 241.325C47.955 217.602 45.427 194.826 55.7651 178.281C66.1031 161.735 87.6818 154.022 114.74 155.382C141.742 156.739 173.835 167.141 204.564 186.341C235.292 205.541 258.712 229.826 271.77 253.498C284.855 277.221 287.383 299.997 277.045 316.543Z" stroke="#9D8D5B" stroke-width="3"/>
<path d="M242.265 109.763C248.71 113.373 253.168 120.421 255.418 130.659C257.668 140.894 257.633 154.024 255.323 169.225C250.707 199.609 237.091 237.721 215.491 276.285C193.891 314.849 168.506 346.37 145.01 366.178C133.254 376.089 122.076 382.978 112.174 386.406C102.268 389.836 93.9292 389.716 87.4845 386.106C81.0398 382.497 76.5815 375.449 74.3313 365.211C72.0818 354.976 72.1169 341.846 74.4262 326.644C79.0421 296.261 92.6589 258.149 114.259 219.585C135.859 181.02 161.243 149.5 184.74 129.691C196.496 119.781 207.673 112.892 217.576 109.463C227.481 106.034 235.82 106.154 242.265 109.763Z" stroke="#9D8D5B" stroke-width="5"/>
<circle cx="164.804" cy="247.5" r="51.5" stroke="#9D8D5B" stroke-width="2"/>
<path d="M167.656 196.161L169.617 196.367L187.928 131.152L178.131 198.177L180.006 198.786L211.476 138.803L187.958 202.327L189.665 203.312L232.919 151.183L196.707 208.429L198.172 209.748L251.319 167.751L203.996 216.217L205.155 217.811L265.872 187.782L209.508 225.35L210.309 227.151L275.943 210.401L212.999 235.429L213.409 237.358L281.091 234.62L214.319 246.014V247.986L281.091 259.38L213.409 256.642L212.999 258.571L275.943 283.599L210.309 266.849L209.508 268.65L265.872 306.218L205.155 276.189L203.996 277.783L251.319 326.249L198.172 284.252L196.707 285.571L232.919 342.817L189.665 290.688L187.958 291.673L211.476 355.197L180.006 295.214L178.131 295.823L187.928 362.848L169.617 297.633L167.656 297.839L163.304 365.436L158.952 297.839L156.991 297.633L138.679 362.848L148.477 295.823L146.602 295.214L115.131 355.197L138.65 291.673L136.942 290.688L93.6887 342.817L129.9 285.571L128.435 284.252L75.2886 326.249L122.611 277.783L121.452 276.189L60.735 306.218L117.1 268.65L116.298 266.849L50.6643 283.599L113.608 258.571L113.198 256.642L45.5164 259.38L112.288 247.986V246.014L45.5164 234.62L113.198 237.358L113.608 235.429L50.6643 210.401L116.298 227.151L117.1 225.35L60.735 187.782L121.452 217.811L122.611 216.217L75.2886 167.751L128.435 209.748L129.9 208.429L93.6887 151.183L136.942 203.312L138.65 202.327L115.131 138.803L146.602 198.786L148.477 198.177L138.679 131.152L156.991 196.367L158.952 196.161L163.304 128.564L167.656 196.161Z" stroke="#9D8D5B" stroke-width="2"/>
<path d="M181.111 213.366L181.185 215.206L182.688 214.142L232.427 178.931L198.614 229.631L197.592 231.163L199.433 231.185L260.369 231.935L203.214 253.077L201.486 253.716L202.963 254.816L251.82 291.24L193.154 274.749L191.381 274.25L191.928 276.009L210.045 334.194L172.277 286.369L171.135 284.923L170.545 286.668L151.001 344.389L148.557 283.498L148.483 281.658L146.98 282.722L97.2409 317.933L131.054 267.233L132.076 265.701L130.234 265.679L69.2986 264.929L126.454 243.787L128.181 243.148L126.705 242.048L77.8475 205.624L136.514 222.115L138.287 222.614L137.74 220.855L119.622 162.67L157.391 210.495L158.533 211.941L159.123 210.196L178.666 152.475L181.111 213.366Z" stroke="#9D8D5B" stroke-width="2"/>
<circle cx="113.804" cy="381.5" r="17.5" fill="#9D8D5B"/>
<ellipse cx="270.304" cy="324.5" rx="8" ry="8.5" fill="#9D8D5B"/>
<circle cx="61.3036" cy="172" r="8" fill="#9D8D5B"/>
<circle cx="221.804" cy="106.5" r="17.5" fill="#9D8D5B"/>
<path fill-rule="evenodd" clip-rule="evenodd" d="M86.3506 65.9474C83.281 64.6458 79.905 63.9258 76.3608 63.9258C62.3316 63.9258 50.9373 75.2068 50.7542 89.1925C58.9306 90.9942 67.7222 89.436 74.8849 84.1502C81.0757 79.5815 84.9643 73.0291 86.3506 65.9474ZM51.8983 97.1341C61.1044 99.6771 71.5537 98.007 80.0733 91.7198C87.4451 86.2796 91.9397 78.4396 93.2011 70.2412C98.5749 74.9356 101.97 81.8387 101.97 89.5347C101.97 103.678 90.5042 115.144 76.3608 115.144C64.8635 115.144 55.1358 107.567 51.8983 97.1341Z" fill="#9D8D5B"/>
<path fill-rule="evenodd" clip-rule="evenodd" d="M255.31 432.361C258.6 432.903 262.05 432.808 265.495 431.973C279.129 428.669 287.547 415.022 284.431 401.387C276.06 401.561 267.883 405.146 262.167 411.97C257.226 417.868 254.99 425.152 255.31 432.361ZM281.449 393.938C271.903 393.634 262.141 397.718 255.342 405.835C249.458 412.858 246.936 421.536 247.641 429.801C241.313 426.504 236.388 420.595 234.575 413.115C231.245 399.37 239.688 385.527 253.433 382.196C264.607 379.488 275.846 384.561 281.449 393.938Z" fill="#9D8D5B"/>
<path fill-rule="evenodd" clip-rule="evenodd" d="M148.066 19.1101H52.4603C33.1304 19.1101 17.4603 34.7801 17.4603 54.1101V442.509C17.4603 461.839 33.1304 477.509 52.4603 477.509H148.066V473.509H52.4603C35.3395 473.509 21.4603 459.63 21.4603 442.509V54.1101C21.4603 36.9893 35.3395 23.1101 52.4603 23.1101H148.066V19.1101ZM152.547 473.509V477.509H157.669V473.509H152.547ZM152.547 23.1101V19.1101H157.029V23.1101H152.547ZM170.473 19.1101H175.595V23.1101H170.473V19.1101ZM275.682 473.509H180.077V477.509H275.682C295.012 477.509 310.682 461.839 310.682 442.509V54.1101C310.682 34.7801 295.012 19.1101 275.682 19.1101H180.077V23.1101H275.682C292.803 23.1101 306.682 36.9893 306.682 54.1101V442.509C306.682 459.63 292.803 473.509 275.682 473.509ZM171.114 473.509H175.595V477.509H171.114V473.509Z" fill="#9D8D5B"/>
<rect x="161.304" y="19" width="5" height="3" fill="#9D8D5B"/>
<rect x="161.304" y="475" width="6" height="2" fill="#9D8D5B"/>
<path d="M164.304 25L166.204 33.4124L173.496 28.8076L168.891 36.0998L177.304 38L168.891 39.9002L173.496 47.1924L166.204 42.5876L164.304 51L162.403 42.5876L155.111 47.1924L159.716 39.9002L151.304 38L159.716 36.0998L155.111 28.8076L162.403 33.4124L164.304 25Z" fill="#9D8D5B"/>
<path d="M190.804 25L192.046 29.8533L196.814 27.1967L193.803 31.4037L199.304 32.5L193.803 33.5963L196.814 37.8033L192.046 35.1467L190.804 40L189.561 35.1467L184.793 37.8033L187.804 33.5963L182.304 32.5L187.804 31.4037L184.793 27.1967L189.561 29.8533L190.804 25Z" fill="#9D8D5B"/>
<path d="M137.804 25L138.9 29.8533L143.107 27.1967L140.45 31.4037L145.304 32.5L140.45 33.5963L143.107 37.8033L138.9 35.1467L137.804 40L136.707 35.1467L132.5 37.8033L135.157 33.5963L130.304 32.5L135.157 31.4037L132.5 27.1967L136.707 29.8533L137.804 25Z" fill="#9D8D5B"/>
<ellipse cx="146.804" cy="40" rx="1.5" ry="1" fill="#9D8D5B"/>
<ellipse cx="180.804" cy="40" rx="1.5" ry="1" fill="#9D8D5B"/>
<path d="M40.3036 32L36.8395 26.75H43.7677L40.3036 32Z" fill="#9D8D5B"/>
<path d="M48.8036 32L45.7725 26.75H51.8347L48.8036 32Z" fill="#9D8D5B"/>
<path d="M57.8036 32L54.7725 26.75H60.8347L57.8036 32Z" fill="#9D8D5B"/>
<path d="M66.8036 32L62.9065 26.75H70.7007L66.8036 32Z" fill="#9D8D5B"/>
<path d="M91.3036 32L87.8395 26.75H94.7677L91.3036 32Z" fill="#9D8D5B"/>
<path d="M100.804 32L96.9065 26.75H104.701L100.804 32Z" fill="#9D8D5B"/>
<path d="M109.804 32L106.773 26.75H112.835L109.804 32Z" fill="#9D8D5B"/>
<path d="M118.804 32L115.773 26.75H121.835L118.804 32Z" fill="#9D8D5B"/>
<path d="M212.804 32L209.773 26.75H215.835L212.804 32Z" fill="#9D8D5B"/>
<path d="M221.304 32L217.84 26.75H224.768L221.304 32Z" fill="#9D8D5B"/>
<path d="M230.804 32L226.907 26.75H234.701L230.804 32Z" fill="#9D8D5B"/>
<path d="M239.804 32L236.773 26.75H242.835L239.804 32Z" fill="#9D8D5B"/>
<path d="M264.304 32L260.84 26.75H267.768L264.304 32Z" fill="#9D8D5B"/>
<path d="M273.804 32L270.773 26.75H276.835L273.804 32Z" fill="#9D8D5B"/>
<path d="M282.304 32L278.84 26.75H285.768L282.304 32Z" fill="#9D8D5B"/>
<path d="M291.304 32L287.84 26.75H294.768L291.304 32Z" fill="#9D8D5B"/>
<path d="M165.352 470.467L163.48 462.181L156.297 466.717L160.833 459.534L152.547 457.663L160.833 455.791L156.297 448.609L163.48 453.144L165.351 444.858L167.223 453.144L174.405 448.608L169.87 455.791L178.156 457.662L169.87 459.534L174.406 466.717L167.223 462.181L165.352 470.467Z" fill="#9D8D5B"/>
<path d="M138.782 470.467L137.612 465.289L133.124 468.124L135.958 463.635L130.779 462.465L135.958 461.295L133.123 456.806L137.612 459.641L138.782 454.462L139.952 459.641L144.441 456.806L141.606 461.295L146.785 462.465L141.606 463.634L144.441 468.123L139.952 465.289L138.782 470.467Z" fill="#9D8D5B"/>
<path d="M191.921 470.467L190.751 465.288L186.262 468.123L189.097 463.634L183.918 462.464L189.097 461.294L186.262 456.805L190.751 459.64L191.921 454.461L193.091 459.64L197.58 456.805L194.745 461.294L199.924 462.464L194.745 463.634L197.58 468.123L193.091 465.288L191.921 470.467Z" fill="#9D8D5B"/>
<circle cx="182.317" cy="455.421" r="1.60056" transform="rotate(179.999 182.317 455.421)" fill="#9D8D5B"/>
<circle cx="148.385" cy="455.422" r="1.60056" transform="rotate(179.999 148.385 455.422)" fill="#9D8D5B"/>
<path d="M289.555 462.782L292.882 468.544L286.228 468.544L289.555 462.782Z" fill="#9D8D5B"/>
<path d="M280.591 462.782L283.918 468.544L277.265 468.544L280.591 462.782Z" fill="#9D8D5B"/>
<path d="M271.628 462.782L274.955 468.544L268.302 468.544L271.628 462.782Z" fill="#9D8D5B"/>
<path d="M262.665 462.782L265.992 468.544L259.338 468.544L262.665 462.782Z" fill="#9D8D5B"/>
<path d="M237.697 462.783L241.023 468.545L234.37 468.545L237.697 462.783Z" fill="#9D8D5B"/>
<path d="M228.733 462.783L232.06 468.545L225.407 468.545L228.733 462.783Z" fill="#9D8D5B"/>
<path d="M219.77 462.783L223.097 468.545L216.444 468.545L219.77 462.783Z" fill="#9D8D5B"/>
<path d="M210.807 462.783L214.134 468.545L207.481 468.545L210.807 462.783Z" fill="#9D8D5B"/>
<path d="M116.695 462.785L120.021 468.547L113.368 468.547L116.695 462.785Z" fill="#9D8D5B"/>
<path d="M107.731 462.786L111.058 468.548L104.405 468.548L107.731 462.786Z" fill="#9D8D5B"/>
<path d="M98.7683 462.786L102.095 468.548L95.4418 468.548L98.7683 462.786Z" fill="#9D8D5B"/>
<path d="M89.8052 462.786L93.132 468.548L86.4786 468.548L89.8052 462.786Z" fill="#9D8D5B"/>
<path d="M64.8366 462.787L68.1634 468.548L61.51 468.549L64.8366 462.787Z" fill="#9D8D5B"/>
<path d="M55.8734 462.787L59.2002 468.548L52.5469 468.549L55.8734 462.787Z" fill="#9D8D5B"/>
<path d="M46.9105 462.787L50.2374 468.548L43.584 468.549L46.9105 462.787Z" fill="#9D8D5B"/>
<path d="M37.9474 462.787L41.2742 468.549L34.6208 468.549L37.9474 462.787Z" fill="#9D8D5B"/>
<path d="M164.804 223L170.529 240.62L189.056 240.62L174.067 251.51L179.792 269.13L164.804 258.24L149.815 269.13L155.54 251.51L140.552 240.62L159.079 240.62L164.804 223Z" fill="#9D8D5B"/>
<path d="M165.304 216.278L172.209 237.835L172.432 238.53H173.162H195.548L177.425 251.885L176.847 252.311L177.066 252.995L183.981 274.581L165.897 261.255L165.304 260.818L164.71 261.255L146.627 274.581L153.542 252.995L153.761 252.311L153.182 251.885L135.059 238.53H157.446H158.175L158.398 237.835L165.304 216.278Z" stroke="#9D8D5B" stroke-width="2"/>
</svg>
