<svg width="338" height="497" viewBox="0 0 338 497" fill="none" xmlns="http://www.w3.org/2000/svg">
<rect x="2.00006" width="330" height="497" rx="35" fill="#0A0A0A"/>
<rect x="14.5001" y="10.5" width="306" height="473" rx="32.5" stroke="#9D8D5B" stroke-width="5"/>
<ellipse cx="169" cy="247.5" rx="29" ry="28.5" fill="#9D8D5B"/>
<path d="M291.987 331.525C280.137 350.49 255.778 359.49 225.483 358.287C195.236 357.086 159.409 345.703 125.228 324.346C91.047 302.989 65.1089 275.779 50.769 249.121C36.4058 222.42 33.8147 196.581 45.6647 177.616C57.5147 158.651 81.8736 149.651 112.169 150.854C142.416 152.054 178.243 163.437 212.424 184.795C246.605 206.152 272.543 233.362 286.883 260.02C301.246 286.721 303.837 312.56 291.987 331.525Z" stroke="#9D8D5B" stroke-width="3"/>
<path d="M258.913 85.6683C265.195 89.1869 269.31 96.7981 270.84 108.475C272.362 120.096 271.239 135.232 267.563 152.911C260.217 188.239 242.803 233.15 217.005 279.209C191.207 325.268 162.009 363.579 135.722 388.298C122.567 400.668 110.248 409.532 99.5439 414.305C88.7876 419.101 80.1477 419.568 73.8657 416.05C67.5837 412.531 63.4684 404.92 61.9388 393.243C60.4167 381.622 61.5401 366.486 65.2159 348.807C72.5612 313.48 89.9757 268.568 115.773 222.509C141.571 176.45 170.77 138.139 197.057 113.42C210.211 101.05 222.53 92.1856 233.235 87.4127C243.991 82.6167 252.631 82.1498 258.913 85.6683Z" stroke="#9D8D5B" stroke-width="5"/>
<path d="M218 247C218 275.158 194.952 298 166.5 298C138.048 298 115 275.158 115 247C115 218.842 138.048 196 166.5 196C194.952 196 218 218.842 218 247Z" stroke="#9D8D5B" stroke-width="2"/>
<path d="M173.43 196.615L173.798 200.268L175.333 196.933L206.275 129.684L189.387 201.757L188.549 205.333L191.084 202.676L242.185 149.118L202.81 211.802L200.857 214.912L204.117 213.222L269.839 179.159L212.244 225.662L209.387 227.969L213.019 227.429L286.241 216.551L216.667 241.833L213.216 243.088L216.827 243.757L289.613 257.243L215.599 258.565L211.928 258.631L215.126 260.436L279.589 296.825L209.157 274.043L205.663 272.913L208.101 275.659L257.257 331.008L198.038 286.591L195.1 284.388L196.515 287.776L225.035 356.087L183.447 294.848L181.384 291.811L181.621 295.475L186.416 369.345L166.965 297.921L166 294.378L165.035 297.921L145.584 369.345L150.379 295.475L150.617 291.811L148.554 294.848L106.965 356.087L135.485 287.776L136.9 284.388L133.963 286.591L74.7435 331.008L123.899 275.659L126.337 272.913L122.843 274.043L52.4108 296.825L116.874 260.436L120.072 258.631L116.401 258.565L42.3873 257.243L115.174 243.757L118.784 243.088L115.333 241.833L45.7591 216.551L118.981 227.429L122.613 227.969L119.756 225.662L62.1609 179.159L127.883 213.222L131.143 214.912L129.19 211.802L89.8153 149.118L140.916 202.676L143.451 205.333L142.613 201.757L125.726 129.684L156.667 196.933L158.202 200.268L158.57 196.615L166 122.964L173.43 196.615Z" stroke="#9D8D5B" stroke-width="2"/>
<path d="M178.102 210.703L177.946 214.372L179.941 211.289L209.418 165.742L189.631 216.259L188.292 219.678L191.18 217.41L233.849 183.902L198.731 225.256L196.354 228.055L199.822 226.848L251.059 209.011L204.417 236.722L201.26 238.597L204.932 238.581L259.185 238.347L206.072 249.412L202.477 250.161L205.955 251.338L257.344 268.732L203.517 261.952L199.873 261.493L202.781 263.736L245.738 296.873L197.028 272.982L193.731 271.365L195.753 274.431L225.622 319.721L187.31 281.309L184.716 278.709L185.633 282.265L199.179 334.799L175.414 286.028L173.805 282.727L173.518 286.388L169.271 340.474L162.63 286.629L162.181 282.985L160.721 286.354L139.142 336.131L150.344 283.047L151.103 279.454L148.627 282.167L112.056 322.24L139.887 275.67L141.771 272.518L138.549 274.28L90.9469 300.307L132.392 265.297L135.197 262.928L131.578 263.548L78.1037 272.708L128.671 253.052L132.093 251.722L128.469 251.133L74.9177 242.435L129.127 240.263L132.796 240.116L129.559 238.382L81.7342 212.767L133.712 228.315L137.23 229.367L134.731 226.676L97.8144 186.92L141.927 218.502L144.913 220.64L143.423 217.284L121.416 167.695L152.884 211.889L155.014 214.881L154.695 211.222L149.981 157.175L165.394 209.192L166.437 212.713L167.323 209.149L180.414 156.499L178.102 210.703Z" stroke="#9D8D5B" stroke-width="2"/>
<circle cx="114.5" cy="403.5" r="17.5" fill="#9D8D5B"/>
<circle cx="257" cy="356" r="8" fill="#9D8D5B"/>
<ellipse cx="63.5001" cy="160.5" rx="8.5" ry="7.5" fill="#9D8D5B"/>
<circle cx="215.5" cy="100.5" r="17.5" fill="#9D8D5B"/>
<path fill-rule="evenodd" clip-rule="evenodd" d="M105.051 74.0058C104.775 73.5972 104.489 73.1923 104.194 72.7916C93.5909 58.4242 74.1559 54.7766 60.7843 64.6445C47.4127 74.5123 45.168 94.1589 55.7707 108.526C56.4549 109.453 57.1759 110.336 57.9297 111.173C54.1546 109.01 50.7572 106.045 48.0079 102.32C37.4052 87.9525 40.457 67.7102 54.8244 57.1075C69.1918 46.5048 89.434 49.5567 100.037 63.9241C102.35 67.0587 104.013 70.473 105.051 74.0058Z" fill="#9D8D5B"/>
<path fill-rule="evenodd" clip-rule="evenodd" d="M235.755 420.617C236.134 420.932 236.522 421.241 236.919 421.542C251.129 432.355 270.806 430.398 280.869 417.173C290.932 403.947 287.57 384.461 273.36 373.649C272.443 372.951 271.503 372.307 270.545 371.715C274.775 372.731 278.868 374.622 282.553 377.426C296.763 388.238 299.518 408.523 288.706 422.733C277.894 436.944 257.609 439.698 243.398 428.886C240.298 426.527 237.743 423.717 235.755 420.617Z" fill="#9D8D5B"/>
<path fill-rule="evenodd" clip-rule="evenodd" d="M150.452 18.7029H54.847C35.517 18.7029 19.847 34.3729 19.847 53.7029V442.102C19.847 461.432 35.517 477.102 54.847 477.102H150.452V473.102H54.847C37.7262 473.102 23.847 459.223 23.847 442.102V53.7029C23.847 36.582 37.7262 22.7029 54.847 22.7029H150.452V18.7029ZM154.934 473.102V477.102H160.056V473.102H154.934ZM154.934 22.7029V18.7029H159.415V22.7029H154.934ZM172.86 18.7029H177.982V22.7029H172.86V18.7029ZM278.069 473.102H182.463V477.102H278.069C297.399 477.102 313.069 461.432 313.069 442.102V53.7029C313.069 34.3729 297.399 18.7029 278.069 18.7029H182.463V22.7029H278.069C295.19 22.7029 309.069 36.5821 309.069 53.7029V442.102C309.069 459.223 295.19 473.102 278.069 473.102ZM173.5 473.102H177.982V477.102H173.5V473.102Z" fill="#9D8D5B"/>
<rect x="163" y="19" width="6" height="2" fill="#9D8D5B"/>
<rect x="164" y="474" width="6" height="3" fill="#9D8D5B"/>
<path d="M166.5 25L168.327 33.0889L175.339 28.6612L170.911 35.6728L179 37.5L170.911 39.3272L175.339 46.3388L168.327 41.9111L166.5 50L164.673 41.9111L157.661 46.3388L162.089 39.3272L154 37.5L162.089 35.6728L157.661 28.6612L164.673 33.0889L166.5 25Z" fill="#9D8D5B"/>
<path d="M193 25L194.169 29.8533L198.657 27.1967L195.823 31.4037L201 32.5L195.823 33.5963L198.657 37.8033L194.169 35.1467L193 40L191.831 35.1467L187.343 37.8033L190.177 33.5963L185 32.5L190.177 31.4037L187.343 27.1967L191.831 29.8533L193 25Z" fill="#9D8D5B"/>
<path d="M139.5 25L140.596 29.8533L144.803 27.1967L142.147 31.4037L147 32.5L142.147 33.5963L144.803 37.8033L140.596 35.1467L139.5 40L138.404 35.1467L134.197 37.8033L136.853 33.5963L132 32.5L136.853 31.4037L134.197 27.1967L138.404 29.8533L139.5 25Z" fill="#9D8D5B"/>
<ellipse cx="149" cy="39.5" rx="2" ry="1.5" fill="#9D8D5B"/>
<circle cx="183.5" cy="39.5" r="1.5" fill="#9D8D5B"/>
<path d="M42.5001 32L39.469 26.75H45.5311L42.5001 32Z" fill="#9D8D5B"/>
<path d="M51.0001 32L47.536 26.75H54.4642L51.0001 32Z" fill="#9D8D5B"/>
<path d="M60.0001 32L56.536 26.75H63.4642L60.0001 32Z" fill="#9D8D5B"/>
<path d="M69.0001 32L65.536 26.75H72.4642L69.0001 32Z" fill="#9D8D5B"/>
<path d="M94.0001 32L90.536 26.75H97.4642L94.0001 32Z" fill="#9D8D5B"/>
<path d="M103.5 32L100.469 26.75H106.531L103.5 32Z" fill="#9D8D5B"/>
<path d="M112 32L108.536 26.75H115.464L112 32Z" fill="#9D8D5B"/>
<path d="M120.5 32L117.469 26.75H123.531L120.5 32Z" fill="#9D8D5B"/>
<path d="M215 32L211.536 26.75H218.464L215 32Z" fill="#9D8D5B"/>
<path d="M224 32L220.536 26.75H227.464L224 32Z" fill="#9D8D5B"/>
<path d="M233.5 32L230.469 26.75H236.531L233.5 32Z" fill="#9D8D5B"/>
<path d="M242 32L238.536 26.75H245.464L242 32Z" fill="#9D8D5B"/>
<path d="M267 32L263.536 26.75H270.464L267 32Z" fill="#9D8D5B"/>
<path d="M276 32L272.536 26.75H279.464L276 32Z" fill="#9D8D5B"/>
<path d="M284.5 32L281.469 26.75H287.531L284.5 32Z" fill="#9D8D5B"/>
<path d="M294 32L290.536 26.75H297.464L294 32Z" fill="#9D8D5B"/>
<path d="M167.738 470.06L165.867 461.774L158.684 466.31L163.22 459.127L154.934 457.256L163.219 455.384L158.684 448.201L165.866 452.737L167.738 444.451L169.61 452.737L176.792 448.201L172.257 455.384L180.543 457.255L172.257 459.127L176.792 466.309L169.61 461.774L167.738 470.06Z" fill="#9D8D5B"/>
<path d="M141.169 470.06L139.999 464.882L135.51 467.716L138.345 463.227L133.166 462.058L138.345 460.888L135.51 456.399L139.999 459.233L141.169 454.055L142.338 459.233L146.827 456.399L143.993 460.888L149.172 462.057L143.993 463.227L146.828 467.716L142.339 464.882L141.169 470.06Z" fill="#9D8D5B"/>
<path d="M194.308 470.06L193.138 464.881L188.649 467.716L191.483 463.227L186.305 462.057L191.483 460.887L188.648 456.398L193.138 459.233L194.307 454.054L195.477 459.233L199.966 456.398L197.132 460.887L202.31 462.057L197.132 463.227L199.966 467.716L195.477 464.881L194.308 470.06Z" fill="#9D8D5B"/>
<circle cx="184.704" cy="455.014" r="1.60056" transform="rotate(179.999 184.704 455.014)" fill="#9D8D5B"/>
<circle cx="150.772" cy="455.015" r="1.60056" transform="rotate(179.999 150.772 455.015)" fill="#9D8D5B"/>
<path d="M291.941 462.374L295.268 468.136L288.615 468.136L291.941 462.374Z" fill="#9D8D5B"/>
<path d="M282.978 462.375L286.305 468.137L279.652 468.137L282.978 462.375Z" fill="#9D8D5B"/>
<path d="M274.015 462.375L277.342 468.137L270.688 468.137L274.015 462.375Z" fill="#9D8D5B"/>
<path d="M265.052 462.375L268.379 468.137L261.725 468.137L265.052 462.375Z" fill="#9D8D5B"/>
<path d="M240.083 462.375L243.41 468.137L236.757 468.137L240.083 462.375Z" fill="#9D8D5B"/>
<path d="M231.12 462.376L234.447 468.138L227.793 468.138L231.12 462.376Z" fill="#9D8D5B"/>
<path d="M222.157 462.376L225.484 468.138L218.83 468.138L222.157 462.376Z" fill="#9D8D5B"/>
<path d="M213.194 462.376L216.521 468.138L209.867 468.138L213.194 462.376Z" fill="#9D8D5B"/>
<path d="M119.081 462.378L122.408 468.14L115.755 468.14L119.081 462.378Z" fill="#9D8D5B"/>
<path d="M110.118 462.378L113.445 468.14L106.792 468.14L110.118 462.378Z" fill="#9D8D5B"/>
<path d="M101.155 462.379L104.482 468.141L97.8284 468.141L101.155 462.379Z" fill="#9D8D5B"/>
<path d="M92.192 462.379L95.5188 468.141L88.8654 468.141L92.192 462.379Z" fill="#9D8D5B"/>
<path d="M67.2232 462.379L70.55 468.141L63.8967 468.141L67.2232 462.379Z" fill="#9D8D5B"/>
<path d="M58.2601 462.379L61.5869 468.141L54.9335 468.141L58.2601 462.379Z" fill="#9D8D5B"/>
<path d="M49.297 462.38L52.6238 468.142L45.9704 468.142L49.297 462.38Z" fill="#9D8D5B"/>
<path d="M40.3341 462.38L43.6609 468.142L37.0075 468.142L40.3341 462.38Z" fill="#9D8D5B"/>
</svg>
